<?xml version="1.0" encoding="UTF-8" standalone="no"?>
<svg
   xmlns:dc="http://purl.org/dc/elements/1.1/"
   xmlns:cc="http://creativecommons.org/ns#"
   xmlns:rdf="http://www.w3.org/1999/02/22-rdf-syntax-ns#"
   xmlns:svg="http://www.w3.org/2000/svg"
   xmlns="http://www.w3.org/2000/svg"
   xmlns:sodipodi="http://sodipodi.sourceforge.net/DTD/sodipodi-0.dtd"
   xmlns:inkscape="http://www.inkscape.org/namespaces/inkscape"
   width="32"
   height="32"
   viewBox="0 0 8.4666665 8.4666669"
   version="1.1"
   id="svg949"
   inkscape:export-filename="C:\Users\T410\Desktop\butter's world\assets\img\favicon.png"
   inkscape:export-xdpi="94.150795"
   inkscape:export-ydpi="94.150795"
   inkscape:version="1.0.2-2 (e86c870879, 2021-01-15)"
   sodipodi:docname="favicon.svg">
  <defs
     id="defs943" />
  <sodipodi:namedview
     id="base"
     pagecolor="#ffffff"
     bordercolor="#666666"
     borderopacity="1.0"
     inkscape:pageopacity="0.0"
     inkscape:pageshadow="2"
     inkscape:zoom="10.580594"
     inkscape:cx="23.934524"
     inkscape:cy="18.18379"
     inkscape:document-units="px"
     inkscape:current-layer="layer1"
     inkscape:document-rotation="0"
     showgrid="false"
     units="px"
     inkscape:window-width="1280"
     inkscape:window-height="737"
     inkscape:window-x="-8"
     inkscape:window-y="-8"
     inkscape:window-maximized="1" />
  <metadata
     id="metadata946">
    <rdf:RDF>
      <cc:Work
         rdf:about="">
        <dc:format>image/svg+xml</dc:format>
        <dc:type
           rdf:resource="http://purl.org/dc/dcmitype/StillImage" />
        <dc:title></dc:title>
      </cc:Work>
    </rdf:RDF>
  </metadata>
  <g
     inkscape:label="Layer 1"
     inkscape:groupmode="layer"
     id="layer1">
    <path
       style="fill:#f29f05;fill-opacity:1;stroke:none;stroke-width:0.0624102"
       d=""
       id="path1653"
       transform="scale(0.26458333)" />
    <g
       id="g1701">
      <circle
         style="fill:#bf7636;fill-opacity:1;stroke-width:0.270009"
         id="path1631"
         sodipodi:type="arc"
         sodipodi:cx="4.1864738"
         sodipodi:cy="4.2398472"
         sodipodi:rx="4.1518278"
         sodipodi:ry="4.1705027"
         sodipodi:start="0"
         sodipodi:end="6.2824523"
         sodipodi:open="true"
         sodipodi:arc-type="arc"
         d="M 8.3383017,4.2398472 A 4.1518278,4.1705027 0 0 1 4.1872347,8.4103498 4.1518278,4.1705027 0 0 1 0.03464631,4.2413757 4.1518278,4.1705027 0 0 1 4.1841914,0.06934515 4.1518278,4.1705027 0 0 1 8.3383005,4.2367902"
         inkscape:export-xdpi="97.446281"
         inkscape:export-ydpi="97.446281" />
      <path
         style="fill:#f29f05;stroke:none;stroke-width:0.264583px;stroke-linecap:butt;stroke-linejoin:miter;stroke-opacity:1;fill-opacity:1"
         d="m 0.19815249,3.1374143 c 0,0 0.13174945,2.1115731 0.92471161,2.212703 0.5416431,0.069078 0.447752,-1.3618505 0.9907625,-1.304504 0.3991369,0.042152 0.1105783,1.0955766 0.5118939,1.0898388 C 3.6783233,5.1203997 2.8383969,2.134839 3.8861256,2.2391688 4.9564693,2.3457506 3.5039173,5.2185625 4.5651803,5.393823 5.5590481,5.5579537 5.1155046,2.6945689 6.1172132,2.800832 7.2988991,2.9261875 6.0819438,6.0705181 7.2655913,6.1757525 8.0013276,6.2411645 8.3383005,4.2367901 8.3383005,4.2367901 L 6.4058278,0.96731909 Z"
         id="path1633"
         sodipodi:nodetypes="csssssssccc"
         inkscape:export-xdpi="97.446281"
         inkscape:export-ydpi="97.446281" />
      <path
         style="fill:#bf7636;fill-opacity:1;stroke-width:0.0624102"
         d="M 3.91659,19.554618 C 3.63002,19.410376 3.1519166,18.960277 3.1519166,18.834734 c 0,-0.02437 0.2411151,-0.357691 0.5358113,-0.740715 l 0.5358114,-0.696408 0.2697878,0.04046 0.2697878,0.04046 0.2709773,-0.468075 c 0.1490376,-0.257442 0.4675697,-0.834883 0.7078491,-1.283204 l 0.4368716,-0.815127 0.3432563,-0.07112 C 7.1923591,14.702114 7.2962549,14.400504 6.9234525,13.675777 6.7414958,13.322053 6.6446317,13.209511 6.394204,13.060865 L 6.0876745,12.87892 6.0864345,12.427609 6.0851945,11.976299 5.6493823,11.741097 5.21357,11.505895 5.21251,11.185923 5.21145,10.865952 5.9447703,10.607502 C 6.3481007,10.465354 9.1635824,9.480594 12.2014,8.4191456 l 5.523306,-1.9299061 0.218436,0.2070933 c 0.154884,0.1468417 0.297015,0.2168615 0.488524,0.2406678 0.148547,0.018466 0.320814,0.079481 0.382813,0.1355902 0.168705,0.1526758 0.717342,0.07004 1.00097,-0.1507651 0.434413,-0.3381933 0.754283,-0.421089 1.087546,-0.2818428 0.120483,0.050341 0.353364,0.091761 0.517513,0.092044 0.286499,4.942e-4 0.304248,0.011118 0.443128,0.2652435 0.349993,0.640421 0.68774,1.3392613 0.723656,1.4973308 0.03721,0.1637534 0.05612,0.1716281 0.412268,0.1716281 0.240606,0 0.373272,-0.025616 0.373272,-0.072074 0,-0.03964 -0.116332,-0.1827384 -0.258517,-0.3179955 -0.176542,-0.16794 -0.314393,-0.3875165 -0.434724,-0.6924517 -0.09691,-0.2455915 -0.177172,-0.4816357 -0.178354,-0.5245427 -0.005,-0.1799532 0.171631,-0.05594 0.3436,0.2413044 0.135019,0.2333777 0.272922,0.3693553 0.512393,0.5052394 0.286111,0.1623493 0.327775,0.210884 0.328609,0.382798 0.0013,0.2673033 0.05003,0.3272612 0.387272,0.4764373 l 0.290245,0.128389 0.279608,-0.1358445 C 25.006141,8.4810448 25.123215,8.280144 24.964842,8.1051437 24.8531,7.9816704 24.854915,7.9797168 25.081347,7.9797168 c 0.185573,0 0.267794,0.043026 0.425535,0.2226839 0.107536,0.1224761 0.359439,0.3054303 0.559786,0.4065649 0.329454,0.166308 0.364266,0.2028955 0.364266,0.3828448 0,0.1392747 0.05988,0.2607412 0.199591,0.4048895 0.151854,0.1566733 0.182209,0.223308 0.126917,0.2786004 -0.05529,0.055292 -0.266015,-0.021589 -0.881032,-0.3214438 l -0.808357,-0.3941182 -0.643415,0.044314 c -0.353878,0.024373 -0.6461,0.049608 -0.649383,0.056079 -0.0033,0.00647 0.0058,0.1429507 0.02013,0.3032896 0.02432,0.2716152 0.04808,0.3060396 0.347862,0.5040503 0.176969,0.116889 0.707925,0.4013058 1.179902,0.6320378 0.83786,0.409599 0.858108,0.424235 0.85677,0.619334 -0.0019,0.282133 -0.217152,0.730308 -0.350698,0.730308 -0.05969,0 -0.40948,-0.309169 -0.777305,-0.687042 -0.815854,-0.838141 -1.179699,-1.04028 -1.984144,-1.102314 -0.51124,-0.03942 -0.513583,-0.04041 -1.040885,-0.4381461 L 21.498398,9.2230159 21.60868,9.072001 C 21.66933,8.988943 21.825671,8.8773781 21.956095,8.8240796 L 22.193228,8.7271733 22.081544,8.5381066 C 22.020118,8.43412 21.899365,8.332734 21.813206,8.3128044 21.727045,8.2928748 21.522604,8.1924571 21.35889,8.0896539 21.083936,7.9169972 21.041116,7.9078443 20.79756,7.9696655 20.540605,8.0348875 20.525138,8.0297529 20.190272,7.768071 19.867816,7.5160866 19.815906,7.4972218 19.347372,7.4617457 19.072767,7.4409533 18.7252,7.3804832 18.575,7.3273677 18.4248,7.2742522 18.147869,7.230794 17.959598,7.230794 c -0.303005,0 -0.387058,0.031279 -0.731977,0.2723954 -0.267182,0.186773 -0.4851,0.2867065 -0.693276,0.3179244 -0.166985,0.025041 -0.44001,0.1146484 -0.606722,0.1991275 L 15.624512,8.1738397 15.301584,8.0620949 c -0.48214,-0.1668381 -1.231082,-0.1508601 -1.646884,0.035135 -0.656315,0.2935805 -1.194422,1.1110525 -1.45084,2.2040631 -0.175119,0.746464 -0.294275,1.726623 -0.438543,3.607396 -0.14042,1.830601 -0.250495,2.669723 -0.441808,3.367961 -0.1634,0.59637 -0.462513,1.156753 -0.723815,1.356057 -0.21433,0.163478 -0.6010552,0.28177 -0.7430435,0.227284 C 9.7205357,18.807759 9.5885942,18.29582 9.4889363,17.433243 9.3551025,16.274864 9.2922149,15.987623 9.0754053,15.544433 8.8210915,15.024577 8.5348934,14.8285 7.9787225,14.793086 c -0.5153895,-0.03282 -0.8701037,0.09916 -1.2277619,0.456821 -0.376112,0.376113 -0.6548256,0.943702 -1.1035669,2.24737 -0.3858003,1.120815 -0.7238,1.868205 -0.9287625,2.053693 -0.1986603,0.179785 -0.449834,0.180928 -0.8020412,0.0037 z"
         id="path1635"
         transform="scale(0.26458333)"
         inkscape:export-xdpi="97.446281"
         inkscape:export-ydpi="97.446281" />
      <path
         style="fill:#bf7636;fill-opacity:1;stroke-width:0.0624102"
         d="m 3.917129,19.553244 c -0.2974587,-0.14823 -0.7652124,-0.580679 -0.7652124,-0.707456 0,-0.03045 0.2411151,-0.368745 0.5358113,-0.751769 l 0.5358114,-0.696408 0.2689559,0.04033 0.2689559,0.04033 0.2196577,-0.374788 c 0.1208118,-0.206134 0.4397182,-0.78417 0.708681,-1.284525 l 0.4890231,-0.909736 0.3610563,-0.07195 C 7.1862351,14.708473 7.2912507,14.390775 6.9236674,13.676194 6.7405278,13.320171 6.6466761,13.211824 6.3931804,13.063775 L 6.0851976,12.883903 V 12.432595 11.981288 L 5.6487435,11.743591 5.2122893,11.505895 5.2118719,11.178241 c -2.297e-4,-0.180209 0.00736,-0.327653 0.016872,-0.327653 0.00951,0 2.8247658,-0.9820252 6.2561251,-2.1822776 l 6.238837,-2.1822773 0.218935,0.2086965 c 0.156009,0.1487121 0.296566,0.2183467 0.489025,0.242271 0.148547,0.018466 0.320814,0.079481 0.382813,0.1355902 0.167225,0.1513369 0.715981,0.067034 1.00097,-0.1537746 0.431995,-0.3347078 0.755382,-0.4176202 1.087546,-0.2788333 0.120483,0.050341 0.353364,0.091707 0.517513,0.091924 0.34,4.493e-4 0.295074,-0.053481 0.820764,0.9852592 0.168624,0.3331939 0.324235,0.6830398 0.345802,0.7774353 0.03741,0.1637292 0.05639,0.1716281 0.412486,0.1716281 0.240606,0 0.373272,-0.025616 0.373272,-0.072074 0,-0.03964 -0.114196,-0.1807057 -0.253769,-0.3134783 -0.234712,-0.2232761 -0.619974,-0.9779821 -0.619974,-1.2144928 0,-0.1843705 0.1703,-0.068972 0.345748,0.2342856 0.135019,0.2333777 0.272922,0.3693553 0.512393,0.5052394 0.289901,0.1645003 0.327653,0.2092896 0.327653,0.3887277 0,0.2309615 0.11773,0.3606347 0.455577,0.5017964 0.212048,0.088599 0.250402,0.088165 0.434587,-0.00492 0.238898,-0.1207353 0.482862,-0.333501 0.482862,-0.4211133 0,-0.034221 -0.04648,-0.1135791 -0.103289,-0.1763517 -0.09829,-0.1086079 -0.09215,-0.1141322 0.126727,-0.1141322 0.182665,0 0.267715,0.042936 0.413142,0.208569 0.100719,0.1147129 0.352623,0.2989098 0.559785,0.4093264 0.338158,0.1802364 0.37666,0.2208126 0.37666,0.3969596 0,0.1361685 0.06107,0.2592113 0.199591,0.4021281 0.151854,0.1566733 0.182209,0.223308 0.126917,0.2786004 -0.05529,0.055292 -0.266142,-0.021652 -0.881564,-0.3217035 l -0.808891,-0.3943779 -0.60646,0.04263 c -0.333554,0.023446 -0.62386,0.053383 -0.645125,0.066525 -0.02126,0.013143 -0.02848,0.1519431 -0.01603,0.3084456 0.02173,0.2732365 0.0379,0.2940853 0.406547,0.5243779 0.211154,0.1319051 0.741995,0.4151991 1.179646,0.6295421 0.772904,0.378534 0.795691,0.395426 0.79436,0.588819 -0.0019,0.276814 -0.217376,0.729592 -0.347202,0.729592 -0.05777,0 -0.417221,-0.313622 -0.798782,-0.696939 -0.840679,-0.844547 -1.177316,-1.031585 -1.966163,-1.092417 -0.51114,-0.03942 -0.513685,-0.04049 -1.04006,-0.4375241 C 21.506865,9.2293988 21.50131,9.2223356 21.597615,9.0753558 21.651275,8.9934598 21.807242,8.8816149 21.944206,8.8268127 L 22.193231,8.7271727 22.081547,8.538106 C 22.020118,8.43412 21.899365,8.332734 21.813206,8.3128044 21.727045,8.2928748 21.526365,8.1948708 21.367249,8.0950176 21.103642,7.9295919 21.053753,7.9189167 20.805557,7.974829 20.607001,8.019559 20.506047,8.01585 20.433117,7.961147 20.37809,7.9198718 20.218319,7.7991214 20.07807,7.6928124 19.860182,7.5276528 19.752127,7.4940236 19.335581,7.4617323 19.067461,7.4409473 18.7252,7.3804832 18.575,7.3273677 18.4248,7.2742522 18.153174,7.230794 17.971384,7.230794 c -0.28673,0 -0.38453,0.036214 -0.738109,0.2733149 -0.268615,0.1801263 -0.509011,0.2885248 -0.705062,0.3179244 -0.163612,0.024535 -0.433878,0.1137289 -0.60059,0.198208 L 15.624512,8.1738397 15.301584,8.0616971 c -0.206826,-0.071824 -0.50254,-0.1120467 -0.822503,-0.1118756 -0.418351,2.246e-4 -0.556771,0.028251 -0.85137,0.1723842 -0.894814,0.4377921 -1.397186,1.4917793 -1.642546,3.4460993 -0.05171,0.411908 -0.151442,1.493165 -0.221618,2.402794 -0.138051,1.789426 -0.24343,2.579373 -0.44096,3.305551 -0.153435,0.564072 -0.451078,1.140596 -0.694685,1.345578 C 10.437155,18.78273 9.9955114,18.930549 9.8609693,18.87892 9.7235089,18.826172 9.5910063,18.286973 9.4600996,17.247637 9.3184565,16.123065 9.2205029,15.737391 8.9839222,15.372781 8.7328961,14.985908 8.4506121,14.823134 7.9785968,14.793078 c -0.548253,-0.03491 -0.8615247,0.09452 -1.2673321,0.5236 -0.3887665,0.411063 -0.6297474,0.911277 -1.1036245,2.290838 -0.5344685,1.555956 -0.8567031,2.105325 -1.2348867,2.105325 -0.074445,0 -0.2794764,-0.07182 -0.4556245,-0.159597 z"
         id="path1637"
         transform="scale(0.26458333)"
         inkscape:export-xdpi="97.446281"
         inkscape:export-ydpi="97.446281" />
      <path
         style="fill:#f29f05;fill-opacity:1;stroke:none;stroke-width:0.0624102"
         d="M 4.0995012,19.603441 C 3.9486307,19.552474 3.6773886,19.370297 3.4830516,19.189409 l -0.3470346,-0.32302 0.5410859,-0.721947 0.5410858,-0.721948 0.2937996,0.02652 0.2937995,0.02652 0.5547602,-1.0189 C 6.262671,14.799756 6.1764986,14.923888 6.4575572,14.876403 6.8463016,14.810725 7.1114181,14.601639 7.1334165,14.343382 7.163438,13.990934 6.8094996,13.36692 6.4128513,13.072984 L 6.0851976,12.830175 6.0850274,12.386471 6.0848571,11.942767 5.6637583,11.724331 5.2426594,11.505895 5.224699,11.193844 5.2067385,10.881793 6.1296474,10.558645 C 13.469326,7.9887317 17.63009,6.5442815 17.693095,6.5442815 c 0.04265,0 0.171926,0.082869 0.287281,0.1841523 0.115356,0.1012838 0.315656,0.2027322 0.445111,0.2254408 0.129455,0.022709 0.302476,0.083475 0.384491,0.1350353 0.233431,0.1467511 0.638426,0.068936 1.085871,-0.2086383 0.427368,-0.265119 0.59506,-0.2860338 1.371257,-0.1710245 0.29253,0.043344 0.449389,0.099397 0.511579,0.1828112 0.04933,0.066165 0.266708,0.4919788 0.483061,0.9462531 l 0.393369,0.8259531 0.358858,9.824e-4 c 0.420911,0.00115 0.455524,-0.071176 0.165672,-0.3462 -0.197566,-0.1874579 -0.567477,-0.8594315 -0.641097,-1.1646031 -0.05933,-0.2459553 0.07534,-0.1687135 0.303797,0.1742383 0.102977,0.1545868 0.320871,0.3673901 0.484209,0.4728963 0.195188,0.1260798 0.308766,0.2483086 0.331371,0.356612 0.0555,0.2659194 0.11694,0.3436423 0.394093,0.4985487 0.315991,0.1766142 0.456618,0.1518047 0.790343,-0.1394333 0.22071,-0.1926105 0.238519,-0.2289606 0.16874,-0.3444115 -0.11468,-0.1897403 -0.09866,-0.2129101 0.117324,-0.1697128 0.107435,0.021487 0.297006,0.1307985 0.421269,0.2429143 0.124263,0.1121158 0.338271,0.2708614 0.475573,0.3527681 0.298475,0.1780522 0.405667,0.2996936 0.405667,0.4603486 0,0.065717 0.07021,0.2029269 0.156025,0.3049111 0.169914,0.2019309 0.197063,0.3006695 0.08267,0.3006695 -0.04034,0 -0.426507,-0.1635952 -0.85814,-0.363545 L 25.026703,8.937703 24.440138,8.9859858 c -0.322611,0.026556 -0.611539,0.073256 -0.642062,0.1037787 -0.03052,0.030523 -0.03629,0.1756125 -0.01281,0.3224214 0.05076,0.3174148 0.155303,0.3934776 1.468291,1.0682651 0.469982,0.241539 0.871261,0.482808 0.891731,0.536153 0.05087,0.132557 -0.06579,0.540642 -0.202975,0.710063 L 25.829776,11.86564 25.084983,11.161761 C 24.217471,10.341902 23.836927,10.126652 23.11109,10.045253 22.855338,10.016572 22.577907,9.9579745 22.494576,9.915037 22.220391,9.7737608 21.566076,9.2606326 21.56449,9.1856436 21.562449,9.089299 21.855819,8.860649 22.041153,8.8141332 22.356505,8.7349847 22.135464,8.45483 21.510272,8.1412795 21.11577,7.943426 21.014234,7.9170694 20.781168,7.9520198 20.534404,7.9890244 20.479582,7.9705613 20.162914,7.7437997 19.870221,7.5342069 19.749013,7.4881917 19.394172,7.4519556 19.162478,7.4282952 18.814391,7.3688546 18.620646,7.3198654 18.005457,7.1643129 17.716419,7.1980088 17.230577,7.4819182 16.994222,7.6200364 16.671694,7.7647881 16.51385,7.8035886 c -0.157844,0.0388 -0.42799,0.1320342 -0.600324,0.2071859 -0.292178,0.1274132 -0.330106,0.1303996 -0.561692,0.044228 -0.149426,-0.0556 -0.484537,-0.094628 -0.841255,-0.097975 -0.525652,-0.00493 -0.628573,0.013101 -0.907454,0.1590035 -0.637304,0.3334189 -1.0949,1.0230923 -1.370841,2.066087 -0.18829,0.711695 -0.297808,1.562382 -0.499848,3.882598 -0.08668,0.995443 -0.185759,1.978404 -0.220173,2.184358 -0.263702,1.578134 -0.716714,2.446159 -1.337391,2.562598 -0.4349779,0.0816 -0.4560289,0.03391 -0.6903849,-1.564034 -0.1739823,-1.186289 -0.2613408,-1.503529 -0.5312117,-1.92907 -0.2352363,-0.37093 -0.5670475,-0.533394 -1.0893861,-0.533394 -0.4844453,0 -0.7956913,0.144742 -1.1653083,0.541913 -0.3726873,0.40047 -0.5717346,0.800482 -1.0413377,2.092707 -0.5965852,1.641646 -0.8568443,2.130343 -1.1947118,2.243349 -0.051488,0.01722 -0.2148521,-0.0096 -0.3630303,-0.0597 z"
         id="path1641"
         transform="scale(0.26458333)"
         inkscape:export-xdpi="97.446281"
         inkscape:export-ydpi="97.446281" />
      <path
         style="fill:#f29f05;fill-opacity:1;stroke:none;stroke-width:0.0624102"
         d="m 27.114361,23.251108 c -0.902274,-0.254389 -1.375456,-0.970929 -1.656539,-2.508498 -0.08157,-0.446207 -0.113045,-1.235357 -0.153082,-3.83823 -0.03768,-2.44965 -0.07393,-3.406568 -0.143647,-3.791784 -0.265095,-1.464787 -0.785207,-2.218748 -1.717551,-2.489788 -0.826739,-0.24034 -1.615996,0.115611 -2.104451,0.949096 -0.433218,0.73923 -0.70773,1.66039 -1.215535,4.078879 -0.411263,1.958696 -0.623702,2.711434 -0.963328,3.413367 -0.585704,1.210523 -1.43697,1.600127 -2.419068,1.107147 -0.562096,-0.282153 -0.88558,-0.936984 -0.975494,-1.974703 -0.06881,-0.794175 -0.0027,-1.84116 0.240212,-3.803801 0.42024,-3.395475 0.374565,-4.6050086 -0.202463,-5.3615429 -0.304129,-0.3987404 -0.706634,-0.5798923 -1.292838,-0.5818563 -0.423999,-0.00142 -0.512132,0.019627 -0.784903,0.1874492 -0.523461,0.3220573 -0.865529,0.9649812 -1.090746,2.050078 -0.149598,0.720761 -0.21963,1.343443 -0.37287,3.315383 -0.245628,3.160807 -0.520451,4.242988 -1.255249,4.942848 -0.411601,0.39203 -1.0704244,0.546408 -1.4152815,0.331634 C 9.3025481,19.096812 9.167498,18.745809 9.0506305,17.870959 8.8104971,16.073367 8.7002294,15.682815 8.3564957,15.412434 c -0.1174841,-0.09241 -0.2560704,-0.13072 -0.4729173,-0.13072 -0.7667265,0 -1.1326593,0.51227 -1.8275333,2.558371 C 5.6557359,19.01882 5.4135496,19.528272 5.0981407,19.855087 4.7994917,20.164535 4.5056731,20.25329 4.1081516,20.154135 2.7089808,19.805135 1.6876249,17.82596 1.0945255,14.314356 0.92456041,13.308032 0.75153435,11.914759 0.79254307,11.882676 0.80298745,11.874505 1.5417326,11.61322 2.4341989,11.302043 3.3266653,10.990866 8.3538096,9.2339854 13.605631,7.397864 25.097728,3.3800416 24.169648,3.7005004 24.206582,3.7374342 c 0.01667,0.016673 1.661564,2.7907419 3.655314,6.1645982 l 3.624999,6.1342846 -0.191975,0.876455 c -0.105586,0.482051 -0.300255,1.246078 -0.432598,1.697839 -1.012685,3.456872 -2.298679,5.049112 -3.747961,4.640497 z M 4.7513266,19.55454 c 0.2019006,-0.201901 0.484586,-0.821068 0.8965181,-1.963647 0.6092067,-1.689762 0.9931736,-2.331681 1.5710479,-2.626491 0.3368455,-0.171845 1.0066615,-0.16494 1.2992007,0.01339 0.2511381,0.153096 0.3288102,0.241864 0.5101125,0.582987 0.1904623,0.358358 0.2262565,0.509877 0.3984894,1.686854 0.2109603,1.441624 0.2837843,1.653871 0.5674638,1.653871 0.323332,0 0.699322,-0.24895 0.928883,-0.615033 0.461862,-0.736531 0.627428,-1.562927 0.870831,-4.346581 0.197319,-2.256623 0.318093,-3.164594 0.508858,-3.825534 0.406468,-1.4082831 1.02415,-2.0349892 2.108392,-2.1391975 l 0.505123,-0.048548 -0.530487,0.015776 c -0.40587,0.01207 -0.594455,0.048773 -0.802794,0.1562433 -0.395672,0.2041054 -0.769479,0.6201214 -1.025215,1.1409781 -0.424546,0.8646721 -0.55217,1.5837871 -0.856331,4.8251041 -0.103074,1.09842 -0.215483,2.152836 -0.249798,2.343146 -0.160054,0.887674 -0.474236,1.722351 -0.770553,2.047102 -0.311119,0.340974 -0.7812202,0.431463 -0.8989659,0.173041 C 9.7448426,18.546227 9.6247503,17.935387 9.5152303,17.270581 9.2949802,15.933618 9.1636828,15.505175 8.8726327,15.173687 8.6149733,14.880229 8.3617887,14.782432 7.8597234,14.782432 c -0.5120223,0 -0.7747781,0.116373 -1.1553478,0.511695 -0.3873121,0.402326 -0.536564,0.696217 -1.0782174,2.123119 C 5.1031388,18.795058 4.821226,19.366138 4.5750341,19.54654 4.4116797,19.666242 4.3982059,19.666657 4.1204039,19.56056 3.9629462,19.50043 3.6887176,19.31753 3.5110069,19.154125 L 3.1878966,18.857028 3.7042795,18.165086 C 4.1824873,17.524297 4.237677,17.471674 4.4508149,17.453269 l 0.2301524,-0.01987 -0.2418002,-0.03445 -0.2418002,-0.03445 -0.5227251,0.695928 c -0.2874989,0.38276 -0.5227252,0.741586 -0.5227252,0.79739 0,0.138083 0.4658482,0.57578 0.7764502,0.729528 0.3511211,0.173806 0.6273576,0.162793 0.8229598,-0.03281 z M 5.4516367,16.358291 C 5.8026504,15.714685 6.1271519,15.138743 6.1727512,15.078419 6.2183505,15.018095 6.3891753,14.928557 6.552362,14.879445 7.1608723,14.696311 7.2915849,14.349823 6.9845784,13.733742 6.8294797,13.4225 6.165287,12.746627 6.0894293,12.822851 c -0.01949,0.01958 0.034775,0.08816 0.1205888,0.152378 0.085814,0.06422 0.2368792,0.179279 0.3357002,0.255679 0.2154629,0.166579 0.5379251,0.819528 0.5379937,1.089377 6.24e-5,0.248857 -0.1451287,0.375561 -0.5487182,0.478847 -0.1787448,0.04574 -0.3514844,0.109848 -0.3838657,0.142454 -0.032381,0.03261 -0.2805419,0.466509 -0.5514678,0.964231 -0.2709258,0.497721 -0.5841249,1.066434 -0.6959978,1.263807 -0.1118729,0.197372 -0.1779413,0.358859 -0.1468188,0.358859 0.031123,0 0.3437794,-0.526587 0.694793,-1.170192 z M 6.0604858,11.928457 C 6.0354523,11.903423 5.8552428,11.798106 5.6600201,11.694418 5.3385885,11.523698 5.3012805,11.482321 5.2649437,11.256254 l -0.040126,-0.249641 0.00892,0.27503 c 0.00872,0.268684 0.017561,0.279828 0.3833822,0.482936 0.3513344,0.195064 0.5468003,0.267313 0.4433659,0.163878 z m 19.9767962,-0.24491 c 0.06611,-0.10089 0.109348,-0.289841 0.110657,-0.483529 l 0.0021,-0.317924 -0.844149,-0.437023 C 23.874932,9.704229 23.809704,9.6525231 23.809704,9.259018 c 0,-0.1664536 0.06433,-0.1857497 0.811333,-0.2433656 0.393249,-0.030331 0.429781,-0.019919 1.193445,0.3401311 0.433278,0.2042809 0.833484,0.3714199 0.889346,0.3714199 0.143962,0 0.125996,-0.1298697 -0.05119,-0.3700307 C 26.568622,9.2432951 26.482116,9.0692346 26.460402,8.9703716 26.430989,8.8364554 26.314779,8.7214799 26.004659,8.5194706 25.775714,8.3703381 25.534895,8.1878848 25.469505,8.1140187 25.386679,8.0204561 25.277822,7.9797168 25.110646,7.9797168 c -0.266126,0 -0.273467,0.00875 -0.161955,0.1930164 0.0694,0.1146735 0.05389,0.1493162 -0.140423,0.313639 C 24.501626,8.745693 24.359536,8.765887 24.048661,8.5943289 23.838634,8.4784249 23.771647,8.3992236 23.728205,8.2154421 23.68675,8.0400647 23.60019,7.930579 23.375196,7.7689378 23.21125,7.6511537 22.98559,7.4273436 22.87373,7.271582 22.761871,7.1158205 22.631816,6.9735924 22.584719,6.9555197 c -0.272843,-0.1046998 0.164697,1.0194475 0.530713,1.3635273 0.232034,0.2181283 0.240877,0.2672526 0.05457,0.3031374 -0.120399,0.02319 -0.115948,0.028259 0.0312,0.035546 0.232586,0.011518 0.227894,-0.1638831 -0.01049,-0.3922727 C 22.985219,8.0685819 22.53342,7.2214212 22.572075,7.105458 c 0.01389,-0.041667 0.107664,0.043161 0.208389,0.1885069 0.100725,0.1453462 0.31032,0.3608686 0.465766,0.4789386 0.155447,0.11807 0.338799,0.3312133 0.40745,0.4736516 0.144559,0.2999316 0.470991,0.5444949 0.726768,0.5444949 0.252572,0 0.697579,-0.4077593 0.659932,-0.604695 -0.04187,-0.2190083 0.143577,-0.1837024 0.495605,0.094357 0.16613,0.1312215 0.417263,0.314757 0.558075,0.4078568 0.182007,0.1203368 0.276812,0.238668 0.32794,0.4093193 0.03956,0.1320259 0.113918,0.2749021 0.165248,0.3175027 0.107682,0.089367 0.122785,0.1869924 0.02893,0.1869924 -0.03542,0 -0.40754,-0.156668 -0.826935,-0.348151 -0.753298,-0.343933 -0.76783,-0.3476805 -1.199408,-0.3093109 -0.838024,0.074505 -0.842538,0.076418 -0.842538,0.3571572 0,0.307432 0.177564,0.4994999 0.748922,0.8100945 1.670997,0.908368 1.622667,0.877657 1.622667,1.031083 0,0.181659 -0.148544,0.549799 -0.246196,0.610151 -0.04239,0.0262 -0.269353,-0.144524 -0.555298,-0.417715 -1.031155,-0.98516 -1.340115,-1.168897 -2.223891,-1.322536 -0.576846,-0.1002814 -0.98498,-0.3101715 -1.341899,-0.6900939 -0.126245,-0.1343812 -0.133522,-0.1672175 -0.0574,-0.2590039 0.04794,-0.057812 0.178447,-0.1432659 0.290006,-0.1898978 0.129779,-0.054248 0.202833,-0.1282959 0.202833,-0.2055921 0,-0.2680433 -0.900338,-0.7495029 -1.40423,-0.7509189 -0.241396,-6.783e-4 -0.375641,-0.043149 -0.592898,-0.1875732 -0.417753,-0.2777071 -0.449479,-0.2263997 -0.04092,0.066167 0.323231,0.2314603 0.377305,0.2498825 0.62462,0.2127954 0.231339,-0.034691 0.333484,-0.00898 0.701665,0.1765892 0.451392,0.2275137 0.740168,0.4779464 0.605532,0.5251288 -0.14803,0.051876 -0.476275,0.3009154 -0.543226,0.4121447 -0.07731,0.1284333 0.02893,0.2345358 0.66553,0.6646874 0.274883,0.1857392 0.443563,0.2518773 0.717718,0.2814153 0.920657,0.09919 1.187323,0.244209 2.16828,1.179158 0.343256,0.327158 0.672603,0.596217 0.731881,0.597911 0.05928,0.0017 0.156608,-0.07144 0.216287,-0.162526 z M 11.015606,8.8846416 c 4.835988,-1.6908338 6.553573,-2.2779499 6.664049,-2.2779499 0.0537,0 0.146408,0.044141 0.206023,0.098091 0.178756,0.1617726 0.98937,0.4636007 1.245083,0.4636007 0.1525,0 0.425908,-0.091787 0.758058,-0.2544922 0.498959,-0.2444167 0.536823,-0.2529918 0.956399,-0.2165937 0.884666,0.076745 0.842496,0.043219 1.340603,1.065816 0.378586,0.7772224 0.459356,0.9019307 0.579421,0.8946164 0.133966,-0.00816 0.134285,-0.00953 0.008,-0.034376 C 22.68627,8.6062356 22.617439,8.5193424 22.569887,8.3666102 22.530352,8.2396329 22.336763,7.8276345 22.139688,7.4510582 L 21.781371,6.766374 21.313295,6.675772 c -0.779766,-0.1509331 -0.976457,-0.131481 -1.413764,0.1398169 -0.458763,0.2846088 -0.80318,0.3483753 -1.105862,0.204743 -0.117746,-0.055874 -0.260382,-0.101589 -0.316969,-0.101589 -0.14391,0 -0.417997,-0.1498763 -0.558981,-0.3056617 C 17.852411,6.5409157 17.768223,6.4811443 17.730636,6.4802558 17.608383,6.477366 5.2129555,10.818026 5.2121937,10.863994 5.2114194,10.910711 5.5942866,10.780128 11.015606,8.8846416 Z M 16.41597,7.8854084 c 0.20492,-0.058176 0.554236,-0.2059788 0.776258,-0.3284504 0.222021,-0.1224717 0.488825,-0.2430858 0.592897,-0.2680315 0.180733,-0.043321 0.181916,-0.045642 0.02638,-0.051744 -0.08956,-0.00351 -0.328282,0.08201 -0.530487,0.1900517 -0.202204,0.1080421 -0.671023,0.3033803 -1.04182,0.434085 -0.533532,0.1880682 -0.706892,0.2252065 -0.830999,0.1780214 -0.08625,-0.032793 -0.232226,-0.057908 -0.324387,-0.055811 -0.121549,0.00277 -0.0733,0.03422 0.175691,0.1145401 0.326872,0.1054421 0.353772,0.1055338 0.563571,0.00192 0.121172,-0.059844 0.387976,-0.1564056 0.592897,-0.2145818 z M 19.160142,7.384489 c -0.24028,-0.046188 -0.60538,-0.098721 -0.811334,-0.1167409 -0.342569,-0.029973 -0.350542,-0.028041 -0.09361,0.022687 0.154465,0.030498 0.393185,0.082903 0.530487,0.1164559 0.137303,0.033553 0.376022,0.061134 0.530487,0.06129 0.255063,2.558e-4 0.240738,-0.00742 -0.156025,-0.083693 z"
         id="path1643"
         transform="scale(0.26458333)"
         inkscape:export-xdpi="97.446281"
         inkscape:export-ydpi="97.446281" />
      <path
         style="fill:#f29f05;fill-opacity:1;stroke:none;stroke-width:0.0624102"
         d="m 27.114361,23.251108 c -0.910564,-0.256727 -1.369514,-0.9524 -1.654909,-2.508498 -0.08195,-0.44685 -0.113195,-1.225226 -0.152804,-3.807025 -0.05232,-3.410653 -0.09298,-3.928881 -0.371712,-4.73819 -0.370911,-1.076952 -1.037426,-1.618146 -1.998975,-1.623118 -0.570314,-0.003 -0.833903,0.118536 -1.270927,0.58575 -0.557313,0.595812 -0.922249,1.607873 -1.408878,3.907174 -0.410394,1.939093 -0.610684,2.766457 -0.799797,3.30382 -0.340236,0.966779 -0.804557,1.630948 -1.315444,1.881624 -0.575623,0.282441 -1.497515,0.04464 -1.881406,-0.485306 -0.613061,-0.846306 -0.669304,-2.060643 -0.250897,-5.4171 0.252019,-2.0217 0.323302,-3.130736 0.247939,-3.857514 -0.147572,-1.4231348 -0.679498,-2.0461192 -1.74271,-2.0410353 -0.53156,0.00254 -0.746504,0.088199 -1.094457,0.4361528 -0.640137,0.6401368 -0.901453,1.7942005 -1.156033,5.1054495 -0.13528,1.759554 -0.251036,2.654353 -0.437898,3.384975 -0.269575,1.054029 -0.78485,1.733823 -1.463833,1.931208 -0.4515189,0.13126 -0.7247846,0.08306 -0.9331761,-0.164599 C 9.2107152,18.88612 9.1082863,18.482671 8.960062,17.299999 8.7651199,15.74457 8.5264881,15.281714 7.9195068,15.281714 c -0.8016682,0 -1.1492377,0.477147 -1.8613883,2.555334 C 5.5302981,19.377324 5.2172238,19.916792 4.7297796,20.125949 4.455919,20.24346 4.2773721,20.234496 3.872184,20.082896 2.4582261,19.553867 1.4002405,17.039582 0.89950833,13.018383 0.82357315,12.408575 0.77271428,11.899908 0.78648862,11.888011 0.80026295,11.876114 2.3561861,11.326213 4.2440957,10.666008 7.7983804,9.4230688 22.592606,4.255922 23.602217,3.9048396 c 0.314952,-0.1095216 0.586414,-0.185334 0.60325,-0.1684719 0.01684,0.016862 1.662019,2.7888637 3.655963,6.1600035 l 3.625352,6.1293458 -0.158274,0.749626 c -0.584855,2.77002 -1.500775,4.973662 -2.459495,5.917378 -0.55064,0.542022 -1.143513,0.730693 -1.754652,0.558387 z M 4.737142,19.54603 c 0.2246081,-0.224608 0.5124196,-0.849799 0.9431597,-2.048753 0.197311,-0.54921 0.4554619,-1.191558 0.5736688,-1.427441 0.2424722,-0.483856 0.6797298,-0.986314 0.9589925,-1.101988 0.1027684,-0.04257 0.174519,-0.08973 0.1594457,-0.104803 -0.057724,-0.05772 -0.3943853,0.168561 -0.6761259,0.454454 -0.3505278,0.355694 -0.581087,0.816765 -1.1368127,2.273394 -0.4757867,1.247098 -0.7433493,1.778584 -0.984436,1.955482 -0.1633866,0.119885 -0.1767734,0.120303 -0.4546302,0.01419 -0.1574577,-0.06013 -0.4316863,-0.24303 -0.609397,-0.406435 L 3.1878966,18.857028 3.7042795,18.165086 c 0.4743298,-0.635592 0.535126,-0.693917 0.7465354,-0.716191 l 0.2301524,-0.02425 -0.2541174,-0.01049 c -0.2534363,-0.01046 -0.2554853,-0.0087 -0.7645254,0.665015 -0.2807243,0.371528 -0.5104079,0.718742 -0.5104079,0.771588 0,0.12681 0.5715725,0.658016 0.8279296,0.769457 0.3204088,0.139286 0.5680894,0.115023 0.7572958,-0.07418 z m 5.648998,-0.766606 c 0.636837,-0.32489 1.012015,-1.22927 1.217995,-2.936018 0.138135,-1.144587 0.360495,-3.802256 0.32535,-3.888627 -0.01665,-0.04093 -0.03254,-0.01825 -0.0353,0.0504 -0.01587,0.394909 -0.39214,4.121168 -0.450495,4.461334 -0.03837,0.223665 -0.149049,0.650844 -0.245952,0.949285 -0.290019,0.893194 -0.607943,1.291463 -1.07275,1.343854 C 9.8694507,18.788452 9.8457398,18.778362 9.7781127,18.612 9.7381909,18.513786 9.6204403,17.918162 9.5164473,17.288389 9.3075896,16.023565 9.1672952,15.548734 8.9076692,15.227957 8.6341913,14.890066 8.3723386,14.780788 7.8648629,14.792769 l -0.4378453,0.01034 0.4680768,0.03647 c 0.9907537,0.0772 1.2455079,0.468992 1.5266186,2.347838 0.1629693,1.089232 0.255163,1.508883 0.3594324,1.636081 0.09275,0.113145 0.3308176,0.0958 0.6049946,-0.04407 z M 5.3670216,16.498714 C 6.2136213,14.954886 6.192577,14.98359 6.5550379,14.87822 c 0.1757375,-0.05109 0.373614,-0.156731 0.4397258,-0.234761 0.1199263,-0.141547 0.1199094,-0.141626 -0.00729,-0.03468 -0.07012,0.05895 -0.2737369,0.144614 -0.4524816,0.190358 -0.1787448,0.04574 -0.3503734,0.109848 -0.381397,0.142454 -0.070327,0.07391 -1.3790141,2.455899 -1.3790141,2.509991 0,0.09624 0.1451966,-0.137288 0.5924389,-0.952863 z m 1.7225845,-2.524872 c -0.037739,-0.121648 -0.1251101,-0.29139 -0.194157,-0.377204 -0.1065022,-0.132365 -0.101835,-0.103972 0.030776,0.187231 0.085974,0.188791 0.1604155,0.42751 0.1654252,0.530487 0.00813,0.167105 0.012198,0.170754 0.037841,0.03395 0.015803,-0.08431 -0.00215,-0.252814 -0.039885,-0.374462 z M 6.5004287,13.126083 C 6.334061,12.972981 6.1655534,12.848966 6.1259673,12.850495 c -0.039586,0.0015 -0.00652,0.05068 0.073477,0.109218 0.079999,0.05854 0.2344638,0.182847 0.3432563,0.276237 0.3183076,0.27324 0.2877628,0.193852 -0.042272,-0.109867 z M 6.0604858,11.928457 C 6.0354523,11.903423 5.8552428,11.798106 5.6600201,11.694418 5.3550187,11.532424 5.299639,11.475157 5.2664777,11.287459 l -0.038592,-0.218436 -0.00822,0.230425 c -0.00785,0.220101 0.00926,0.240328 0.3818482,0.451511 0.3629398,0.205715 0.5655334,0.284064 0.4589675,0.177498 z M 12.323781,10.03319 c 0.401117,-1.3205921 1.009913,-1.9383009 2.027872,-2.0575615 l 0.439772,-0.051522 -0.485868,0.023158 c -0.380323,0.018127 -0.544833,0.057713 -0.757301,0.1822275 -0.582368,0.3412903 -1.091057,1.1054402 -1.317427,1.979031 -0.139614,0.538784 -0.280273,1.356345 -0.272628,1.584603 0.0035,0.102977 0.05584,-0.125419 0.116427,-0.507547 0.06059,-0.382127 0.172705,-0.900703 0.249153,-1.152389 z m 13.749761,1.566137 c 0.06491,-0.12799 0.103625,-0.320913 0.09361,-0.466485 L 26.150088,10.88461 25.139495,10.352714 C 23.854278,9.676278 23.871748,9.6893471 23.829348,9.3726069 c -0.03965,-0.2962174 -0.06101,-0.2864748 0.78957,-0.360236 0.39057,-0.03387 0.426698,-0.024038 1.123384,0.3057192 0.842741,0.3988876 1.063093,0.4666772 1.063093,0.3270521 0,-0.052576 -0.06658,-0.1749801 -0.147946,-0.2720092 C 26.576079,9.2761038 26.48945,9.1047847 26.464939,8.9924237 26.430198,8.8331621 26.342438,8.7384678 26.066796,8.5628227 25.872327,8.4389031 25.620964,8.2570099 25.508211,8.1586156 25.367186,8.0355495 25.235712,7.9797168 25.086942,7.9797168 c -0.240214,0 -0.24903,0.011637 -0.140492,0.1854345 0.06388,0.1022899 0.05312,0.1454434 -0.06857,0.2749811 -0.220956,0.235197 -0.463171,0.3152274 -0.70739,0.2337298 -0.187108,-0.062439 -0.194314,-0.060334 -0.08361,0.02443 0.200586,0.1535823 0.428258,0.1107543 0.714723,-0.1344483 0.213685,-0.1829066 0.258232,-0.2559172 0.22848,-0.3744614 -0.06284,-0.250374 0.143969,-0.1780856 0.746766,0.261026 0.435205,0.3170289 0.578066,0.4590803 0.639188,0.6355663 0.04329,0.1250067 0.120526,0.2734856 0.171628,0.3299532 0.108679,0.1200889 0.118828,0.1864551 0.02851,0.1864551 -0.03542,0 -0.40754,-0.1563225 -0.826935,-0.3473834 l -0.762537,-0.3473834 -0.499281,0.043022 c -0.274605,0.023662 -0.56608,0.068322 -0.647721,0.099245 -0.132897,0.050337 -0.144736,0.083828 -0.113077,0.3198667 0.04327,0.3225969 0.159325,0.4294573 0.89468,0.823797 1.327657,0.711965 1.457579,0.796735 1.457579,0.951021 0,0.18323 -0.149379,0.549003 -0.249472,0.610864 -0.04617,0.02853 -0.210492,-0.08403 -0.427638,-0.292923 -0.603472,-0.580544 -1.078092,-0.987167 -1.265152,-1.083899 -0.251239,-0.129921 -0.223909,-0.07342 0.05435,0.112371 0.128721,0.08595 0.523453,0.428453 0.877183,0.76113 0.391794,0.368477 0.684483,0.597169 0.748923,0.585168 0.05818,-0.01083 0.155586,-0.117913 0.216463,-0.237952 z M 10.110658,9.198369 c 5.385819,-1.884101 7.450287,-2.5916773 7.561634,-2.5916773 0.05256,0 0.179332,0.059654 0.281725,0.1325642 0.234978,0.1673187 0.961025,0.4260755 1.200399,0.4278115 0.09983,7.24e-4 0.43208,-0.11411 0.73834,-0.2551866 0.537384,-0.2475429 0.573555,-0.2552934 1.035494,-0.2218767 0.444166,0.032131 0.458422,0.029553 0.197814,-0.035776 -0.519883,-0.1303228 -0.81694,-0.090245 -1.232561,0.16629 C 19.442276,7.0990316 19.093653,7.162486 18.767922,7.0253907 18.640387,6.9717129 18.459321,6.9113099 18.365556,6.8911619 18.27179,6.8710138 18.099574,6.7706811 17.982855,6.6682002 17.866136,6.5657193 17.744553,6.4818712 17.712671,6.4818712 c -0.03188,0 -2.232815,0.7593078 -4.890964,1.6873506 -6.9883925,2.4398672 -7.5103179,2.6250272 -7.5763226,2.6878022 -0.071513,0.06801 -0.032416,0.05469 4.8652736,-1.658655 z m 13.63456,0.968277 c -0.05263,-0.03082 -0.343751,-0.09934 -0.646935,-0.152261 C 22.514212,9.9124368 22.136118,9.7230175 21.784856,9.3563789 21.611599,9.1755374 21.608593,9.1626464 21.712827,9.047469 c 0.05983,-0.066106 0.190997,-0.1542513 0.291492,-0.1958778 0.104138,-0.043135 0.182719,-0.1229237 0.182719,-0.185526 0,-0.1639844 -0.663939,-0.6291637 -0.886247,-0.6209363 -0.04461,0.00165 0.07335,0.08286 0.262145,0.1804634 0.376481,0.1946384 0.641185,0.4419392 0.51893,0.4848124 -0.164057,0.057533 -0.581341,0.3987935 -0.581341,0.475429 0,0.076993 0.687189,0.6264829 0.972855,0.7779145 0.07168,0.037995 0.363993,0.098382 0.649596,0.1341928 0.285604,0.03581 0.533551,0.07938 0.550995,0.09683 0.01744,0.01744 0.06214,0.03086 0.09933,0.02982 0.03719,-10e-4 0.02455,-0.02712 -0.02808,-0.05794 z m -0.95098,-1.5381228 c -0.02074,-0.020738 -0.07457,-0.022956 -0.11962,-0.00493 -0.04979,0.019923 -0.035,0.034712 0.03771,0.037706 0.06579,0.00271 0.102652,-0.012041 0.08191,-0.032779 z m 0.578594,-0.050004 c 0,-0.048241 -0.0972,-0.204047 -0.215992,-0.3462361 -0.243705,-0.2916955 -0.620838,-1.0186123 -0.584706,-1.1270085 0.01307,-0.039196 0.115329,0.05625 0.227253,0.2121012 0.111924,0.1558512 0.327257,0.372243 0.478518,0.4808705 0.164774,0.1183312 0.31184,0.289526 0.36687,0.4270597 0.05052,0.1262553 0.143399,0.2696079 0.206402,0.3185613 0.109836,0.085341 0.110086,0.083742 0.0061,-0.038834 C 23.797594,8.434721 23.730919,8.2878921 23.70909,8.1787466 23.680414,8.0353649 23.584279,7.9191468 23.362635,7.759911 23.193914,7.638697 22.967315,7.4138889 22.859082,7.2603375 22.489517,6.7360306 22.371193,6.9914379 22.680632,7.6455301 c 0.09979,0.210942 0.282321,0.4951919 0.405617,0.6316665 0.256571,0.2839933 0.264217,0.3070064 0.114958,0.3460118 -0.08219,0.021478 -0.07447,0.030333 0.0312,0.035781 0.08245,0.00425 0.140423,-0.028974 0.140423,-0.080471 z M 22.215107,7.6187924 C 21.811045,6.8212845 21.768562,6.761786 21.594141,6.7491047 l -0.187231,-0.013612 0.175267,0.066834 c 0.143264,0.05463 0.249649,0.2204394 0.582613,0.9080425 0.224039,0.4626647 0.424604,0.8239487 0.445699,0.8028535 0.02109,-0.021095 -0.156827,-0.4235887 -0.395382,-0.8944303 z M 16.35122,7.9183865 c 0.511902,-0.1771285 1.09264,-0.4617287 1.09264,-0.5354661 0,-0.016413 -0.119359,0.031098 -0.265243,0.1055819 -0.145884,0.074484 -0.566858,0.2416863 -0.935497,0.3715616 -0.556675,0.1961222 -0.704666,0.2262675 -0.873331,0.1778949 -0.304073,-0.087207 -0.422466,-0.061183 -0.172697,0.03796 0.274774,0.1090691 0.454576,0.084527 1.154128,-0.1575323 z m 4.769643,0.022128 c 0.0143,-0.012765 -0.126893,-0.023208 -0.313767,-0.023208 -0.186875,0 -0.395169,-0.03782 -0.462876,-0.084045 -0.312787,-0.213543 -0.466361,-0.3018116 -0.466361,-0.2680473 0,0.020199 0.147444,0.1362634 0.327654,0.2579217 0.29401,0.1984846 0.356491,0.2170585 0.6085,0.1808921 0.154465,-0.022168 0.292548,-0.050749 0.30685,-0.063513 z M 18.941706,7.3540454 c -0.758184,-0.1459798 -0.983227,-0.1450368 -0.374462,0.00157 0.257443,0.061999 0.580415,0.1126936 0.717718,0.1126557 0.166353,-4.6e-5 0.05183,-0.038155 -0.343256,-0.1142257 z M 17.875531,7.2532195 c 0.06263,-0.054009 -0.222574,-0.014195 -0.30685,0.042836 -0.06837,0.046265 -0.04312,0.052055 0.09361,0.02147 0.102977,-0.023034 0.198933,-0.051972 0.213235,-0.064306 z"
         id="path1645"
         transform="scale(0.26458333)"
         inkscape:export-xdpi="97.446281"
         inkscape:export-ydpi="97.446281" />
      <path
         style="fill:#f29f05;fill-opacity:1;stroke:#f29f05;stroke-width:0.0624102;stroke-opacity:1"
         d="m 27.013374,23.217109 c -0.881248,-0.304537 -1.341595,-1.061038 -1.583704,-2.602542 -0.03746,-0.238507 -0.09209,-1.894049 -0.121408,-3.678982 -0.04131,-2.515498 -0.07583,-3.371649 -0.153483,-3.807024 -0.180626,-1.012691 -0.383918,-1.499045 -0.82264,-1.968074 -0.383248,-0.409723 -0.79812,-0.583183 -1.396178,-0.583747 -0.559516,-5e-4 -0.845317,0.124841 -1.225941,0.537769 -0.647983,0.702978 -0.959495,1.585849 -1.551436,4.396993 -0.596894,2.834667 -0.918773,3.750176 -1.538605,4.376205 -0.360536,0.36414 -0.630489,0.47841 -1.113709,0.471431 -1.3531,-0.01954 -1.921202,-1.194227 -1.749149,-3.616775 0.035,-0.49287 0.148752,-1.58172 0.252774,-2.419666 C 16.415087,11.058669 16.364013,9.8214859 15.791532,9.0332184 15.510365,8.6460709 15.149633,8.475065 14.593699,8.465382 13.999966,8.4550413 13.759034,8.5521061 13.398055,8.9470748 12.732744,9.6750303 12.540863,10.583766 12.2318,14.470381 c -0.15051,1.892732 -0.393666,3.170918 -0.728377,3.828831 -0.171938,0.337963 -0.59278,0.776859 -0.89058,0.928785 C 10.45084,19.310647 10.23024,19.359036 9.9966772,19.36316 9.6618825,19.36906 9.6184849,19.35356 9.4526497,19.168184 9.2223129,18.910763 9.1094883,18.508167 8.9843895,17.497277 8.7649382,15.723952 8.5406677,15.281714 7.860818,15.281714 c -0.7130001,0 -1.0681383,0.497873 -1.7605515,2.468143 C 5.8946262,18.335009 5.647845,18.979768 5.5518639,19.182655 5.3335438,19.644146 4.9568073,20.058677 4.6695537,20.153479 4.0285549,20.365028 3.1573625,19.834165 2.5339101,18.852121 2.0370005,18.069403 1.5422982,16.635023 1.2242944,15.054915 1.0432606,14.155389 0.7358174,11.931596 0.78648862,11.888186 0.8143149,11.864348 3.376382,10.963822 10.344834,8.5285824 12.910751,7.6318803 15.000169,6.888248 14.987987,6.8760649 14.975804,6.8638824 13.07301,7.5106103 10.759556,8.3132384 5.1042962,10.275269 5.5334239,10.139086 5.4341051,10.003259 5.3573889,9.8983435 5.3483349,9.9001053 5.2767424,10.033877 5.2349626,10.111944 5.0757163,10.231137 4.9228618,10.298752 4.4680917,10.499918 0.9523137,11.72989 0.92114846,11.698725 0.8481228,11.625698 1.5571678,9.7911714 1.9954507,8.91916 2.1584396,8.5948752 2.4011253,8.1564383 2.5347521,7.9448551 L 2.7777102,7.5601584 3.1592624,7.5255601 C 3.3691162,7.5065312 3.5726722,7.4587774 3.6116092,7.4194396 3.6647768,7.365725 3.6008223,7.358647 3.3547499,7.3910111 3.1710465,7.4151726 3.0270962,7.4095188 3.0270962,7.3781427 c 0,-0.03078 0.075131,-0.1677999 0.1669571,-0.3044895 C 3.7433039,6.2560602 5.0673273,4.8336771 6.1421555,3.906541 L 6.7920107,3.3459825 7.2655399,3.3861615 C 7.5259809,3.40826 7.8555101,3.4425556 7.9978272,3.4623741 8.2520734,3.4977793 8.2608857,3.4925866 8.5032085,3.164566 8.6388515,2.9809532 8.7916848,2.7959894 8.8428387,2.7535354 9.0183775,2.6078512 10.111107,2.3154792 10.85958,2.2139337 11.497729,2.1273558 11.648005,2.084695 11.875572,1.9255103 12.294786,1.6322654 12.660519,1.698734 12.855605,2.1036222 l 0.10984,0.2279685 0.226478,-0.266527 c 0.124562,-0.1465898 0.341894,-0.4555205 0.482959,-0.6865125 0.24928,-0.40819288 0.264853,-0.42096897 0.554618,-0.45500598 0.233704,-0.0274519 0.337594,-0.0791817 0.480714,-0.2393613 0.181715,-0.20337374 0.185884,-0.20448227 0.880818,-0.23419612 0.384031,-0.0164203 0.730269,-0.007004 0.769418,0.0209255 0.05267,0.0375764 0.0454,0.17054992 -0.02797,0.51138826 l -0.09915,0.46060764 0.144102,0.116687 c 0.210726,0.1706355 0.297556,0.145808 0.475413,-0.1359353 0.08771,-0.1389423 0.197109,-0.2670645 0.243109,-0.2847163 0.09039,-0.034687 0.670641,0.1887932 1.221649,0.4705139 0.705313,0.3606136 0.859437,0.3943496 1.483359,0.3246905 0.414407,-0.046267 0.631671,-0.103938 0.805121,-0.2137119 l 0.237554,-0.1503447 0.718508,0.3382426 c 0.787991,0.3709525 1.258536,0.5168711 1.666757,0.5168711 0.229067,0 0.365975,0.067055 0.969849,0.4750132 0.788504,0.5326878 1.881342,1.3731886 2.111651,1.6240682 l 0.151737,0.1652896 -0.187231,-0.043396 C 26.171931,4.6223127 25.624281,4.3806621 25.057909,4.1091794 L 24.02814,3.6155745 23.234984,3.5432119 c -0.436235,-0.039799 -0.834804,-0.05638 -0.885709,-0.036846 -0.147796,0.056715 -0.309155,0.349006 -0.346348,0.6273865 -0.03324,0.248794 -0.04617,0.2612493 -0.408786,0.3938606 -0.205954,0.075318 -0.417239,0.1386114 -0.469523,0.1406518 -0.06329,0.00247 -0.145759,-0.1452082 -0.246747,-0.4418413 C 20.794443,3.98137 20.71516,3.8139438 20.701686,3.854365 c -0.01347,0.040421 0.03943,0.2545825 0.117569,0.4759139 0.07814,0.2213315 0.123582,0.4209056 0.100989,0.4434979 -0.02259,0.022592 -0.189138,0.0553 -0.370102,0.072684 -0.180965,0.017384 -0.357251,0.070196 -0.391747,0.1173601 -0.05751,0.078634 -1.333348,0.5475578 -4.042124,1.4856547 -0.575709,0.1993781 -1.035931,0.3733185 -1.022715,0.3865345 0.04883,0.048826 5.067707,-1.736085 5.136859,-1.8268689 0.03944,-0.051778 0.08157,-0.067967 0.09361,-0.035976 0.01205,0.031992 0.862551,-0.2333235 1.890005,-0.5895893 1.027454,-0.3562658 1.899097,-0.6477559 1.936983,-0.6477559 0.03789,0 0.238879,0.2878672 0.44665,0.6397049 0.207771,0.3518376 1.842457,3.1161616 3.632635,6.1429421 l 3.25487,5.503237 -0.121509,0.590545 c -0.635124,3.086754 -1.709059,5.551792 -2.7524,6.317675 -0.331467,0.243319 -0.765618,0.404018 -1.082467,0.400672 -0.106103,-0.0011 -0.338044,-0.05219 -0.515423,-0.113488 z M 4.6748532,19.581679 c 0.091709,-0.07214 0.254016,-0.303836 0.3606812,-0.514884 0.2166144,-0.428594 0.8813887,-2.164262 0.8434571,-2.202194 -0.01338,-0.01338 -0.1598244,0.334133 -0.3254324,0.772252 -0.3728806,0.98646 -0.7171538,1.687001 -0.9235306,1.879235 -0.1285595,0.11975 -0.1952553,0.138213 -0.3652226,0.101102 -0.23235,-0.05073 -0.6289033,-0.306174 -0.8585248,-0.553027 -0.083216,-0.08946 -0.1800003,-0.162655 -0.2150761,-0.162655 -0.1183292,0 0.3638761,0.447449 0.6784293,0.629529 0.3711693,0.214853 0.5797793,0.227973 0.8052189,0.05064 z M 10.360299,18.78355 c 0.33709,-0.155578 0.482677,-0.328307 0.74223,-0.880606 0.33683,-0.71674 0.5875,-2.231221 0.686933,-4.150281 0.0301,-0.58089 0.02616,-0.565766 -0.05692,0.218436 -0.217984,2.057723 -0.284113,2.556149 -0.397452,2.995691 -0.210862,0.817744 -0.377684,1.181838 -0.68993,1.505788 -0.25954,0.269267 -0.323216,0.304109 -0.555782,0.304109 -0.3238856,0 -0.3292685,-0.01174 -0.5386867,-1.175238 -0.084452,-0.469202 -0.138067,-0.684587 -0.1191449,-0.478633 0.057104,0.621524 0.2078299,1.404238 0.3075471,1.597069 0.110936,0.214527 0.2610035,0.229907 0.6212025,0.06367 z M 3.7378309,18.105777 C 4.1290356,17.584 4.2486703,17.464506 4.3867993,17.457573 c 0.1521087,-0.0076 0.1547034,-0.0113 0.025489,-0.036 -0.079122,-0.01512 -0.1881207,0.0092 -0.2422193,0.05414 -0.1137224,0.09438 -0.7551139,0.931058 -0.9255546,1.207359 -0.1861871,0.301828 -0.019988,0.107337 0.4933165,-0.577295 z M 5.5254607,16.199955 C 6.17214,15.030463 6.1953166,14.998256 6.4645048,14.895044 6.7746992,14.77611 6.733465,14.750415 6.3868869,14.846677 c -0.2172365,0.06034 -0.262964,0.125635 -0.9049484,1.292231 -0.6950291,1.262989 -0.7620606,1.393588 -0.671983,1.309251 0.028854,-0.02701 0.3508311,-0.588707 0.7155052,-1.248204 z m 0.4954153,0.361169 c 0,-0.03433 -0.027224,-0.02028 -0.060499,0.0312 -0.033274,0.05149 -0.060499,0.1217 -0.060499,0.156026 0,0.03432 0.027224,0.02028 0.060499,-0.0312 0.033274,-0.05149 0.060499,-0.1217 0.060499,-0.156026 z m 3.3529034,-0.07682 c -0.015823,-0.06072 -0.029811,-0.02615 -0.031083,0.07682 -0.00127,0.102977 0.011674,0.152659 0.028771,0.110406 0.017095,-0.04225 0.018136,-0.126508 0.00232,-0.187231 z m -2.5882782,-1.198377 0.267055,-0.285054 -0.2945853,0.276409 c -0.2541037,0.238426 -0.7384244,1.009698 -0.7335416,1.168153 9.031e-4,0.02931 0.1124263,-0.155457 0.2478294,-0.410585 0.1354031,-0.255128 0.3663622,-0.592143 0.5132425,-0.748923 z m 2.5252514,0.920244 c -0.019923,-0.04979 -0.034711,-0.035 -0.037706,0.03771 -0.00271,0.06579 0.01204,0.102652 0.032779,0.08191 0.020738,-0.02074 0.022955,-0.07457 0.00492,-0.11962 z M 9.1509175,15.676459 c -0.073572,-0.126519 -0.091338,-0.08602 -0.031113,0.07092 0.021403,0.05578 0.052062,0.08826 0.068131,0.0722 0.016069,-0.01607 -5.617e-4,-0.08047 -0.037017,-0.143115 z M 8.9416834,15.266112 c -0.1028876,-0.157008 -0.4661926,-0.42276 -0.5721389,-0.418511 -0.037831,0.0015 0.03622,0.0582 0.1645589,0.125955 0.1283385,0.06776 0.2790131,0.192897 0.3348315,0.278087 0.055819,0.08519 0.1157267,0.154892 0.1331285,0.154892 0.017402,0 -0.00977,-0.06319 -0.06038,-0.140423 z M 8.0979276,14.799695 c -0.1115583,-0.01384 -0.2941082,-0.01384 -0.4056665,0 -0.1115583,0.01384 -0.020283,0.02517 0.2028333,0.02517 0.2231166,0 0.3143915,-0.01133 0.2028332,-0.02517 z M 7.127011,14.17512 C 7.111187,14.1144 7.0972,14.14897 7.095928,14.25194 c -0.00127,0.102977 0.011674,0.152659 0.02877,0.110406 0.017095,-0.04225 0.018136,-0.126508 0.00231,-0.187231 z M 6.9975291,13.804989 c -0.052801,-0.09743 -0.097125,-0.157404 -0.0985,-0.133275 -0.00423,0.07418 0.1409698,0.363951 0.1685489,0.336371 0.014273,-0.01427 -0.017249,-0.105666 -0.070049,-0.203096 z M 6.3972488,13.034946 c -0.1201397,-0.10113 -0.2441801,-0.184628 -0.2756453,-0.185552 -0.072981,-0.0021 -0.028931,0.04098 0.2259231,0.221184 0.2857969,0.202078 0.3108158,0.184149 0.049722,-0.03563 z M 11.87164,12.613677 c -0.0143,-0.0944 -0.026,-0.01716 -0.026,0.171628 0,0.188791 0.0117,0.266023 0.026,0.171628 0.0143,-0.0944 0.0143,-0.248861 0,-0.343256 z m 0.06185,-0.52976 c -0.01493,-0.07763 -0.02771,-0.02881 -0.0284,0.108491 -6.93e-4,0.137302 0.01152,0.20082 0.02714,0.14115 0.01562,-0.05967 0.01619,-0.172008 0.0013,-0.249641 z M 5.8860744,11.831601 C 5.7593939,11.75544 5.5721201,11.646603 5.4699104,11.589741 5.3677007,11.532879 5.2715596,11.42054 5.2562636,11.3401 c -0.022717,-0.119466 -0.029193,-0.123393 -0.035354,-0.02144 -0.010708,0.177187 0.040732,0.231917 0.4274168,0.454749 0.3854353,0.222112 0.5962094,0.273697 0.2377484,0.05819 z M 26.063787,11.566306 c 0.06881,-0.155566 0.116382,-0.368817 0.105708,-0.473893 -0.02063,-0.203069 -0.0386,-0.214819 -1.423638,-0.930836 -0.257442,-0.133088 -0.566372,-0.3023591 -0.686512,-0.3761567 -0.205745,-0.126382 -0.209371,-0.1266934 -0.06241,-0.00536 0.08581,0.070851 0.450914,0.2885387 0.811333,0.4837527 1.17828,0.638192 1.310615,0.727471 1.310615,0.884205 0,0.176999 -0.149528,0.545644 -0.245339,0.604858 -0.04123,0.02548 -0.324403,-0.186597 -0.67733,-0.507266 -0.333568,-0.303077 -0.676674,-0.606176 -0.76246,-0.673553 l -0.155973,-0.122503 0.12482,0.131816 c 0.374593,0.395592 1.369817,1.267782 1.446618,1.267782 0.0492,0 0.145754,-0.12728 0.214568,-0.282845 z M 11.995009,11.49148 c -0.01582,-0.06072 -0.02981,-0.02615 -0.03108,0.07683 -0.0013,0.102977 0.01167,0.152659 0.02877,0.110406 0.01709,-0.04225 0.01814,-0.126508 0.0023,-0.187231 z m 0.06218,-0.438059 c -0.0157,-0.06007 -0.02854,-0.01092 -0.02854,0.109218 0,0.120139 0.01284,0.169288 0.02854,0.109218 0.0157,-0.06007 0.0157,-0.158366 0,-0.218436 z m 0.06072,-0.343256 c -0.01731,-0.04291 -0.03148,-0.0078 -0.03148,0.07801 0,0.08581 0.01417,0.12092 0.03148,0.07801 0.01731,-0.04291 0.01731,-0.113118 0,-0.156025 z M 10.464084,9.0663096 c 5.261364,-1.8358495 7.089769,-2.4596179 7.209689,-2.4596179 0.04665,0 0.197122,0.074321 0.334386,0.1651587 0.137265,0.090837 0.267724,0.1470061 0.289909,0.1248205 0.02219,-0.022186 0.01143,-0.040338 -0.02389,-0.040338 -0.03533,0 -0.170849,-0.084731 -0.301161,-0.1882898 C 17.806826,6.5359727 17.697115,6.491604 17.605574,6.5194438 17.064418,6.6840211 5.8814656,10.596645 5.8433825,10.634727 c -0.015746,0.01575 -0.012351,0.02863 0.00755,0.02863 0.019896,0 2.0958161,-0.7186714 4.6131565,-1.5970474 z m 1.854389,0.8793296 c -0.009,-0.1056175 -0.169941,0.4288298 -0.169106,0.5616918 4.37e-4,0.06865 0.03986,-0.0156 0.08761,-0.18723 0.04776,-0.171629 0.08443,-0.3401362 0.08149,-0.3744618 z m 11.287098,0.1807298 c -0.02074,-0.02074 -0.07457,-0.02295 -0.11962,-0.0049 -0.04979,0.01992 -0.035,0.03471 0.03771,0.03771 0.06579,0.0027 0.102652,-0.01204 0.08191,-0.03278 z M 22.977147,10.005084 C 22.528423,9.915892 22.09634,9.6814991 21.788684,9.3603747 21.586465,9.149304 21.603845,9.0952267 21.942643,8.8813537 c 0.134417,-0.084854 0.244395,-0.1809179 0.244395,-0.213476 0,-0.1365929 -0.771778,-0.6861088 -0.851563,-0.6063242 -0.01903,0.019026 0.101603,0.1036559 0.268063,0.1880676 0.281226,0.1426105 0.57445,0.3913827 0.515506,0.4373578 -0.01409,0.010992 -0.131294,0.083541 -0.260449,0.1612213 -0.366189,0.2202432 -0.395768,0.3336913 -0.144519,0.5542908 0.56435,0.4955061 0.972604,0.686116 1.471526,0.68704 0.146273,2.5e-4 0.07741,-0.02763 -0.208455,-0.08445 z M 12.553774,9.3098505 c -0.02698,-0.02698 -0.230296,0.453949 -0.223144,0.527834 0.0024,0.02505 0.05918,-0.077909 0.126124,-0.2287966 0.06694,-0.1508873 0.110603,-0.2854544 0.09702,-0.2990374 z m 14.222083,0.3522453 c 0.02213,-0.035809 -0.02801,-0.1551687 -0.111428,-0.2652435 -0.08342,-0.1100748 -0.16786,-0.2422628 -0.187653,-0.2937513 -0.03199,-0.083213 -0.03638,-0.083213 -0.03953,0 -0.0019,0.051488 0.05138,0.1638269 0.118506,0.249641 0.266321,0.3404709 0.146931,0.329951 -0.713878,-0.062904 C 25.15636,8.9769836 24.92756,8.8945565 25.276342,9.086101 c 0.250677,0.137667 1.361745,0.6404189 1.41615,0.6408002 0.02372,1.872e-4 0.06123,-0.028996 0.08336,-0.064806 z M 5.0242236,9.5663772 c 0,-0.019803 -0.084254,-0.1202602 -0.1872307,-0.223237 C 4.6536285,9.1597758 4.6497622,9.1428682 4.6497622,8.5243603 c 0,-0.5806966 -0.013247,-0.6506647 -0.1645134,-0.8689426 -0.090482,-0.130566 -0.190436,-0.237393 -0.2221191,-0.237393 -0.061505,0 -0.034556,0.058884 0.1472247,0.3216855 0.0887,0.1282343 0.114666,0.2833306 0.1149354,0.6865125 4.182e-4,0.6228111 0.08121,0.9515495 0.2656051,1.080705 0.1407886,0.098612 0.2333287,0.1221899 0.2333287,0.059449 z M 23.827806,9.3777011 c -0.02522,-0.1554277 -0.0096,-0.243458 0.05073,-0.2855974 0.07263,-0.050742 0.07156,-0.056652 -0.0064,-0.03539 -0.111473,0.030394 -0.150202,0.1864044 -0.09795,0.3945794 0.05787,0.2305677 0.09479,0.1799243 0.05364,-0.073592 z m -11.07077,-0.371965 c 0.0721,-0.1222024 0.102759,-0.204675 0.06813,-0.1832733 -0.06763,0.041797 -0.270212,0.4054587 -0.225867,0.4054587 0.01465,0 0.08563,-0.099984 0.157737,-0.2221854 z m 12.082437,-0.025872 c 0.179278,-0.038516 0.108916,-0.043929 -0.249641,-0.019202 -0.274605,0.018937 -0.510984,0.044691 -0.525286,0.05723 -0.0497,0.043573 0.526786,0.015284 0.774927,-0.038027 z m 1.558834,-0.138809 C 26.378746,8.7900813 26.250655,8.6853781 26.113659,8.608382 25.976663,8.5313859 25.737536,8.3584377 25.582266,8.2240529 25.370686,8.0409319 25.245633,7.9797168 25.083122,7.9797168 c -0.204907,0 -0.212817,0.00773 -0.143776,0.1404231 0.104141,0.2001621 0.141033,0.22549 0.0909,0.06241 -0.03429,-0.1115583 -0.01875,-0.140423 0.07562,-0.140423 0.117802,0 0.917037,0.5374288 1.164855,0.7832827 0.146392,0.1452324 0.17883,0.1492104 0.127576,0.015646 z M 24.608681,8.7038241 C 24.701453,8.65585 24.833259,8.5505327 24.901584,8.4697857 L 25.02581,8.3229731 24.870232,8.4555974 c -0.24817,0.2115526 -0.435769,0.286501 -0.613867,0.2452478 -0.124083,-0.028741 -0.142254,-0.022463 -0.0722,0.024943 0.127194,0.086073 0.225424,0.08099 0.424516,-0.021964 z M 13.604706,8.1730818 c 0.136795,-0.072025 0.305303,-0.1342125 0.374462,-0.1381943 0.107222,-0.00617 0.109441,-0.011485 0.01506,-0.036064 -0.173086,-0.045075 -0.617469,0.2019995 -0.889773,0.4947079 L 12.856708,8.7598448 13.106349,8.5319407 C 13.243651,8.4065935 13.467913,8.245107 13.604706,8.1730818 Z m 9.736173,0.4319475 c 0.0208,-0.03366 -0.07459,-0.2100847 -0.211973,-0.3920542 -0.270704,-0.3585443 -0.591378,-1.0038823 -0.554224,-1.1153433 0.01268,-0.038043 0.117791,0.054234 0.233577,0.2050613 0.115786,0.1508268 0.331482,0.3710875 0.479324,0.4894679 0.147841,0.1183803 0.301495,0.2941631 0.341452,0.3906281 0.094,0.2269436 0.138281,0.1847886 0.05518,-0.052529 C 23.649205,8.0302981 23.52048,7.8801786 23.39815,7.7966606 23.27582,7.7131426 23.048161,7.4954869 22.892242,7.3129812 22.736322,7.1304756 22.580569,6.9811529 22.546122,6.9811529 c -0.183443,0 0.189297,0.8771253 0.553607,1.3027406 0.184355,0.2153759 0.212843,0.2802919 0.142539,0.3247997 -0.05639,0.035699 -0.06124,0.055967 -0.01354,0.056581 0.04088,4.993e-4 0.09135,-0.026584 0.112153,-0.060245 z M 22.403419,8.0020784 C 22.1447,7.4343575 21.815769,6.8431528 21.723082,6.7792753 c -0.03659,-0.025219 -0.1227,-0.044065 -0.191352,-0.04188 -0.09822,0.00313 -0.08875,0.017161 0.04443,0.065862 0.133923,0.048973 0.254886,0.2303062 0.579562,0.868816 0.225673,0.4438091 0.422628,0.8069256 0.437677,0.8069256 0.01505,0 -0.07044,-0.2146138 -0.189978,-0.4769203 z m -6.151705,-0.061998 c 0.585415,-0.200725 1.192146,-0.4858549 1.192146,-0.5602429 0,-0.014479 -0.147444,0.048491 -0.327654,0.139935 -0.180209,0.091443 -0.601315,0.2585106 -0.935789,0.3712603 -0.495872,0.1671565 -0.64557,0.1942638 -0.810921,0.146842 -0.295149,-0.084648 -0.364132,-0.062411 -0.109994,0.035457 0.297589,0.1146014 0.251162,0.1208362 0.992212,-0.1332514 z m 4.655914,0.039636 c 0.165127,-0.042018 0.151261,-0.048514 -0.117454,-0.055026 -0.188846,-0.00457 -0.384601,-0.056775 -0.514885,-0.1372944 -0.285267,-0.1763052 -0.267464,-0.100732 0.02272,0.096456 0.243094,0.1651868 0.301247,0.1743318 0.609615,0.095865 z m -6.538772,-0.037706 c -0.02074,-0.020738 -0.07457,-0.022955 -0.11962,-0.00492 -0.04979,0.019923 -0.035,0.034711 0.03771,0.037706 0.06579,0.00271 0.102651,-0.01204 0.08191,-0.032779 z m 4.63526,-0.5628835 c -0.223117,-0.048826 -0.447793,-0.079029 -0.499282,-0.067118 -0.107179,0.024795 0.51336,0.1530136 0.748923,0.1547455 0.08581,6.304e-4 -0.02652,-0.038801 -0.249641,-0.087627 z M 4.1558275,7.2684418 c -0.039791,-0.047945 -0.127921,-0.072639 -0.1958451,-0.054877 -0.2202338,0.057593 -0.1973843,0.1420494 0.038431,0.1420494 0.1896083,0 0.2171177,-0.015234 0.1574141,-0.087172 z M 19.238154,7.1253626 c -0.06007,-0.015697 -0.158366,-0.015697 -0.218435,0 -0.06007,0.015698 -0.01092,0.028542 0.109217,0.028542 0.12014,0 0.169288,-0.012844 0.109218,-0.028542 z M 18.72327,7.0101046 c -0.102977,-0.047153 -0.229358,-0.084862 -0.280846,-0.083799 -0.05149,0.00106 0.0047,0.039787 0.12482,0.086053 0.284947,0.1097322 0.397058,0.1081126 0.156026,-0.00225 z m 1.27941,-0.153772 c 0.261937,-0.1322254 0.467683,-0.1891073 0.700335,-0.193619 0.315035,-0.00611 0.319886,-0.00869 0.110998,-0.059146 -0.272545,-0.065826 -0.560221,0.00906 -0.967359,0.2518099 -0.402859,0.2402001 -0.318934,0.2407137 0.156026,9.551e-4 z m 1.231302,-0.1625268 c -0.02074,-0.020738 -0.07457,-0.022955 -0.11962,-0.00492 -0.04979,0.019923 -0.035,0.034711 0.03771,0.037706 0.06579,0.00271 0.102652,-0.01204 0.08191,-0.032779 z M 20.1275,4.9600995 c 0,-0.013159 -0.05621,-0.038625 -0.124906,-0.05659 -0.0687,-0.017965 -0.109168,-0.0072 -0.08993,0.023926 0.03359,0.054354 0.214838,0.08191 0.214838,0.032664 z m 0.134695,-0.5867453 c 0.144251,-0.166739 0.17608,-0.2599342 0.170518,-0.4992818 l -0.0068,-0.294277 -0.05085,0.2566259 c -0.02797,0.1411442 -0.137227,0.3970118 -0.242802,0.5685946 -0.105576,0.1715827 -0.191103,0.3369471 -0.190059,0.3674764 10e-4,0.030529 0.03357,-6.615e-4 0.07228,-0.069313 0.03871,-0.068651 0.150197,-0.2170727 0.247743,-0.3298254 z M 20.626782,3.6110005 C 20.590041,3.5423492 20.533159,3.48618 20.500376,3.48618 c -0.03278,0 -0.01151,0.056169 0.04727,0.1248205 0.05878,0.068651 0.115663,0.1248205 0.126405,0.1248205 0.01074,0 -0.01053,-0.056169 -0.04727,-0.1248205 z"
         id="path1665"
         transform="scale(0.26458333)"
         inkscape:export-xdpi="97.446281"
         inkscape:export-ydpi="97.446281" />
      <path
         style="fill:#f29f05;fill-opacity:1;stroke:none;stroke-width:0.0624102"
         d="M 27.944967,9.9033572 C 26.014473,6.6364289 24.443582,3.9548824 24.4541,3.9443651 c 0.01052,-0.010517 0.199825,0.075739 0.420683,0.1916809 0.545589,0.286412 1.854426,0.8014499 1.925326,0.7576311 0.07393,-0.045689 0.899546,0.8614825 1.491068,1.6383511 1.615891,2.1222115 2.677587,4.7269798 3.032147,7.4390708 0.09976,0.76306 0.190921,1.872367 0.153862,1.872217 -0.01223,-4.9e-5 -1.601724,-2.673031 -3.532219,-5.9399588 z"
         id="path1647"
         transform="scale(0.26458333)"
         inkscape:export-xdpi="97.446281"
         inkscape:export-ydpi="97.446281" />
      <path
         style="fill:#f29f05;fill-opacity:1;stroke:none;stroke-width:0.0624102"
         d="M 5.4234284,10.064794 C 5.4779498,9.9227134 5.2409058,9.6199445 4.9649084,9.4791414 4.6697228,9.3285487 4.5949245,9.0792254 4.6353631,8.3806739 L 4.6641009,7.8842448 4.3973538,7.5419165 C 4.2506429,7.3536367 4.1232559,7.1901069 4.1142716,7.178518 4.1052873,7.166929 3.8873858,7.2301194 3.630046,7.318941 3.3727061,7.4077626 3.102636,7.480435 3.0298901,7.480435 2.9083812,7.480435 2.9178636,7.4506322 3.1464898,7.1139646 3.8753747,6.0406343 5.0858014,4.7355998 6.1476078,3.8782775 L 6.8029153,3.34917 7.3021972,3.3844121 c 0.274605,0.019383 0.6161787,0.053578 0.7590527,0.075988 0.2478997,0.038884 0.2647397,0.031135 0.368498,-0.1695703 0.2087162,-0.4037313 0.4734295,-0.6783935 0.6538202,-0.6783935 0.092961,0 0.3318065,-0.071992 0.5307672,-0.1599818 0.3615936,-0.1599139 1.0673047,-0.2754913 1.6877877,-0.2764162 0.284595,-4.244e-4 0.343433,-0.025676 0.56431,-0.2421909 0.237829,-0.233131 0.257254,-0.2400987 0.546824,-0.1961529 0.317172,0.048135 0.392537,0.1132033 0.452945,0.3910624 0.02052,0.094396 0.0597,0.1716282 0.08707,0.1716282 0.09786,0 0.562944,-0.5999238 0.761853,-0.9827303 l 0.202561,-0.38983319 0.323404,-2.3092e-4 c 0.285611,-2.0408e-4 0.338487,-0.0214132 0.452474,-0.18149327 0.07099,-0.0996943 0.12907,-0.21203268 0.12907,-0.24964085 0,-0.0461878 0.273427,-0.0683785 0.842538,-0.0683785 0.463396,0 0.842539,0.015437 0.842539,0.0343044 0,0.0188674 -0.0416,0.11474468 -0.09244,0.21306057 -0.05084,0.0983159 -0.11079,0.33489846 -0.133219,0.52573916 -0.03941,0.3352943 -0.03511,0.3491408 0.127706,0.4110418 0.286078,0.1087665 0.410003,0.082021 0.410003,-0.088487 0,-0.0839 0.06319,-0.2247063 0.140423,-0.3129031 l 0.140423,-0.1603577 1.027162,0.4708909 1.027164,0.470891 0.619775,-0.042686 c 0.567869,-0.039111 0.637395,-0.058156 0.830143,-0.227391 L 20.815218,1.5374763 21.72626,1.981341 c 0.864231,0.421058 0.933468,0.4438646 1.347521,0.4438646 h 0.43648 L 24.299689,2.95055 c 1.020443,0.6790794 2.384195,1.7838342 2.202032,1.7838342 -0.216678,0 -1.749343,-0.7072583 -2.098798,-0.9685045 C 24.242444,3.6459113 24.080629,3.6146219 23.281958,3.5491248 l -0.933412,-0.076547 -0.203454,0.2220066 c -0.185938,0.2028932 -0.197596,0.2388111 -0.135411,0.417196 0.03867,0.1109157 0.04449,0.2172534 0.01348,0.2462926 -0.06227,0.05832 -0.968182,0.3889573 -0.993163,0.3624805 -0.009,-0.00956 -0.09894,-0.2841778 -0.199842,-0.6102712 -0.151403,-0.4893244 -0.206995,-0.5963811 -0.318234,-0.6128405 -0.12309,-0.018213 -0.134784,0.00767 -0.134784,0.2982846 0,0.2770224 -0.03233,0.3591214 -0.249641,0.6340473 -0.137302,0.1737007 -0.249641,0.3689295 -0.249641,0.4338417 0,0.1034832 0.03652,0.1142555 0.296449,0.087446 0.163047,-0.016817 0.254322,-0.012358 0.202833,0.00991 -0.223307,0.096578 -14.8782127,5.2031036 -14.9320674,5.2031036 -0.032859,0 -0.042599,-0.04468 -0.021645,-0.09928 z"
         id="path1649"
         transform="scale(0.26458333)"
         inkscape:export-xdpi="97.446281"
         inkscape:export-ydpi="97.446281" />
      <path
         style="fill:#f29f05;fill-opacity:1;stroke:none;stroke-width:0.0624102"
         d="m 5.4610953,9.9946138 c 0,-0.058879 -0.1755288,-0.2700616 -0.390064,-0.4692969 L 4.6809673,9.1630717 4.6786157,8.5070253 4.6762641,7.8509795 4.4097072,7.5096817 C 4.2631007,7.3219679 4.1070691,7.1683838 4.0629702,7.1683838 c -0.044099,0 -0.2434385,0.056169 -0.4429768,0.1248205 -0.3792315,0.1304748 -0.5928972,0.1581569 -0.5928972,0.076815 0,-0.026403 0.2215406,-0.3430641 0.4923125,-0.703691 C 4.1527483,5.8228158 5.296778,4.6300393 6.1490405,3.924648 L 6.819522,3.3697112 7.4041159,3.4262546 c 0.9439365,0.0913 0.891774,0.1042243 1.1501014,-0.2849625 0.125908,-0.1896883 0.2822049,-0.3734032 0.3473265,-0.4082552 0.4536461,-0.242784 1.8760852,-0.54422 2.6230422,-0.5558616 0.05682,-8.856e-4 0.220966,-0.099906 0.364763,-0.220046 0.281035,-0.234798 0.373977,-0.2556245 0.674007,-0.1510331 0.137833,0.048048 0.213579,0.1286913 0.263794,0.280846 0.03874,0.1173939 0.108011,0.2134434 0.153928,0.2134434 0.102838,0 0.614756,-0.6721596 0.819224,-1.0756576 0.149009,-0.29405463 0.154102,-0.29736755 0.457158,-0.29736755 0.254174,0 0.327832,-0.0271582 0.431663,-0.15915755 0.06886,-0.0875366 0.135299,-0.18947337 0.147649,-0.22652604 0.02133,-0.0639884 1.515008,-0.10309806 1.576819,-0.0412866 0.01434,0.014345 -0.01355,0.13734521 -0.06198,0.27333372 -0.04844,0.13598849 -0.0893,0.37764892 -0.0908,0.53702322 -0.0029,0.3118286 0.05058,0.3655361 0.364289,0.3655361 0.136232,0 0.184689,-0.04176 0.24636,-0.2123076 0.148804,-0.4115108 0.167884,-0.410193 1.244443,0.085949 l 0.981834,0.4524879 0.592898,-0.028251 c 0.563236,-0.026838 0.746267,-0.079574 1.065589,-0.3070249 0.07812,-0.055647 0.277944,0.014774 0.976235,0.3440502 0.819379,0.3863742 0.906942,0.4140191 1.311374,0.4140191 h 0.43337 l 0.649932,0.446497 c 0.781716,0.5370299 1.742863,1.2641219 2.085369,1.5775465 0.218844,0.2002625 0.230393,0.2235404 0.09361,0.1886912 C 26.079019,4.5800799 24.95989,4.0578051 24.548532,3.8177133 24.223493,3.6280018 24.120982,3.6041558 23.269122,3.5200996 l -0.926059,-0.091378 -0.202052,0.2254548 c -0.174988,0.1952559 -0.19706,0.2566774 -0.164779,0.4585538 l 0.03728,0.2330991 -0.358289,0.1340531 C 21.055597,4.7042309 21.075288,4.714079 20.853858,4.079077 20.697809,3.6315686 20.631168,3.5135564 20.526038,3.4985515 c -0.114811,-0.016387 -0.137305,0.021503 -0.17314,0.2916438 -0.02705,0.2039193 -0.115636,0.418708 -0.25811,0.6258287 -0.254685,0.3702466 -0.2785,0.5505748 -0.0765,0.5792633 0.08626,0.01225 -0.148476,0.1200521 -0.6085,0.2794592 -0.411907,0.1427338 -3.136114,1.0930072 -6.053792,2.1117184 -5.1692543,1.8048528 -7.8064482,2.7152001 -7.8656895,2.7152001 -0.016063,0 -0.029205,-0.04817 -0.029205,-0.1070514 z"
         id="path1651"
         transform="scale(0.26458333)"
         inkscape:export-xdpi="97.446281"
         inkscape:export-ydpi="97.446281" />
      <path
         style="fill:#f29f05;fill-opacity:1;stroke:none;stroke-width:0.0624102"
         d="M 5.398685,9.898087 C 5.3471966,9.7876046 5.1874602,9.6126837 5.0437153,9.5093736 4.711691,9.2707462 4.6346168,9.0476458 4.6573155,8.3908948 L 4.6753735,7.8684182 4.4053372,7.518401 C 4.2568173,7.3258916 4.1009861,7.1683838 4.0590457,7.1683838 c -0.04194,0 -0.239514,0.056169 -0.4390523,0.1248205 -0.3581111,0.1232084 -0.5928972,0.1585538 -0.5928972,0.089258 0,-0.0632 0.3873428,-0.6074506 0.7742016,-1.0878216 C 4.3667389,5.5925204 5.4754814,4.4723802 6.182235,3.8892279 L 6.8097594,3.3714487 7.5526902,3.4369043 C 8.2503897,3.4983747 8.3005835,3.4952178 8.3771303,3.385052 8.839587,2.7194863 8.8254833,2.7303047 9.5177604,2.5101245 9.9564925,2.3705849 10.415818,2.2773457 10.907573,2.2280044 c 0.69384,-0.069618 0.747945,-0.085203 0.977279,-0.2815046 0.260083,-0.2226216 0.374648,-0.2463286 0.678504,-0.1404036 0.137833,0.048048 0.213579,0.1286913 0.263794,0.280846 0.07231,0.2190936 0.106897,0.2452723 0.218905,0.16568 0.131436,-0.093397 0.519443,-0.618556 0.714015,-0.9664029 l 0.200732,-0.35885885 h 0.301564 c 0.248916,0 0.323421,-0.0277863 0.426757,-0.15915755 0.06886,-0.0875366 0.135299,-0.18947337 0.147649,-0.22652604 0.02133,-0.0639884 1.515008,-0.10309806 1.576819,-0.0412866 0.01434,0.014345 -0.01355,0.13734521 -0.06198,0.27333372 -0.132942,0.37325162 -0.120434,0.75895572 0.02717,0.83795322 0.229114,0.1226178 0.379806,0.076877 0.471759,-0.1431954 0.153262,-0.3668093 0.233592,-0.3923317 0.648619,-0.2060788 0.201286,0.090332 0.42731,0.1642393 0.502276,0.1642393 0.07497,0 0.121456,0.024022 0.10331,0.053383 -0.01815,0.029361 0.206057,0.1598993 0.498229,0.2900862 0.528344,0.2354216 0.534478,0.2364895 1.132597,0.1972006 0.497246,-0.032663 0.642445,-0.066682 0.838569,-0.1964708 0.130457,-0.086332 0.257658,-0.156968 0.282668,-0.156968 0.02501,0 0.411776,0.1739755 0.859479,0.3866122 0.727156,0.3453633 0.867275,0.3904044 1.313287,0.4221562 0.47675,0.03394 0.521814,0.050778 0.998564,0.3731179 1.160035,0.7843215 2.47297,1.8216178 2.355314,1.8608366 C 26.298281,4.6849871 25.017887,4.110756 24.618729,3.8651515 24.245455,3.6354739 23.97834,3.5720925 23.154396,3.5176931 22.81114,3.4950302 22.484244,3.4637171 22.427961,3.4481083 c -0.06654,-0.018453 -0.168532,0.061638 -0.2916,0.2289834 -0.148968,0.2025653 -0.182237,0.3006775 -0.156254,0.4607957 0.03252,0.2004127 0.02688,0.2058874 -0.379966,0.36876 C 21.112314,4.7019375 21.071597,4.705886 21.021535,4.5627566 20.745091,3.7724 20.607888,3.48618 20.505465,3.48618 c -0.08784,0 -0.12141,0.069102 -0.154399,0.3177868 -0.02801,0.2111429 -0.114483,0.422931 -0.257681,0.6311055 -0.252659,0.3673015 -0.274721,0.5318649 -0.0751,0.5602152 0.09127,0.012963 -0.05617,0.088868 -0.421269,0.2168679 C 13.309914,7.4163603 5.5743675,10.102763 5.5214712,10.100314 5.5054272,10.099571 5.4501735,10.008569 5.398685,9.898087 Z"
         id="path1655"
         transform="scale(0.26458333)"
         inkscape:export-xdpi="97.446281"
         inkscape:export-ydpi="97.446281" />
      <path
         style="fill:#f29f05;fill-opacity:1;stroke:none;stroke-width:0.0624102"
         d="m 5.4610953,10.003854 c 0,-0.053797 -0.1755288,-0.2647789 -0.390064,-0.4688492 L 4.6809673,9.1639672 4.6598837,8.4938293 4.6388001,7.8236913 4.3870505,7.4960375 C 4.2485883,7.315828 4.1131339,7.1683838 4.0860409,7.1683838 c -0.027093,0 -0.2272912,0.055807 -0.4448846,0.1240154 -0.3952403,0.1238949 -0.6140601,0.1563214 -0.6140601,0.090996 0,-0.078928 0.5193389,-0.7848433 0.9846524,-1.3383956 C 4.5771199,5.3724153 5.7140299,4.2529002 6.3712928,3.7215569 l 0.4421208,-0.3574185 0.7419135,0.06781 0.7419134,0.06781 0.095376,-0.1455924 C 8.7814672,2.7605776 8.8290135,2.7256716 9.5489656,2.505237 9.96739,2.3771241 10.499538,2.2678928 10.911674,2.225521 c 0.538222,-0.055335 0.716505,-0.099087 0.873744,-0.2144273 0.372706,-0.2733926 0.456475,-0.2987243 0.723396,-0.218753 0.197983,0.059317 0.25922,0.1154755 0.317075,0.2907799 0.03944,0.1194958 0.09522,0.217265 0.123971,0.217265 0.09404,0 0.525778,-0.5352261 0.773214,-0.9585497 l 0.242265,-0.41447545 h 0.299295 c 0.246485,0 0.321387,-0.0280836 0.424489,-0.15915755 0.06886,-0.0875366 0.135299,-0.18947337 0.147649,-0.22652604 0.02144,-0.0643285 1.515174,-0.10293128 1.577342,-0.0407636 0.01463,0.0146327 -0.01449,0.16315984 -0.06472,0.3300603 -0.129004,0.42864814 -0.118734,0.70142914 0.02939,0.78070364 0.229114,0.1226178 0.379806,0.076877 0.471759,-0.1431954 0.04775,-0.1142909 0.13122,-0.244646 0.18548,-0.289678 0.112646,-0.093488 0.152673,-0.079064 1.343992,0.4843324 l 0.717717,0.3394218 0.576314,-0.033256 c 0.538669,-0.031084 0.723623,-0.082242 1.053863,-0.291496 0.118869,-0.075321 0.216571,-0.043943 0.96047,0.3084649 0.737598,0.3494236 0.883479,0.3966184 1.334327,0.431675 l 0.50619,0.03936 0.717699,0.4914869 c 1.189892,0.8148486 2.31643,1.7231823 2.137133,1.7231823 -0.118952,0 -1.093123,-0.4376571 -1.678443,-0.7540584 -0.564569,-0.3051843 -0.580889,-0.3096193 -1.435436,-0.390086 -0.475407,-0.044766 -0.89246,-0.070529 -0.926786,-0.057251 -0.171188,0.066217 -0.362813,0.4131766 -0.353894,0.6407679 l 0.0093,0.2380599 -0.4381,0.1718824 c -0.26176,0.1026981 -0.459368,0.1487758 -0.49094,0.114476 -0.02906,-0.031574 -0.1272,-0.2677276 -0.218085,-0.5247867 -0.251766,-0.7120986 -0.423255,-0.8105172 -0.495381,-0.2843026 -0.02331,0.1700798 -0.128525,0.4169558 -0.265825,0.6237457 -0.231873,0.3492255 -0.246287,0.5307728 -0.04264,0.5370069 0.06115,0.00187 -0.0152,0.054592 -0.16967,0.1171566 -0.562901,0.227996 -14.2762264,4.9965755 -14.3699561,4.9969115 -0.025744,6.2e-5 -0.046808,-0.04385 -0.046808,-0.09764 z"
         id="path1657"
         transform="scale(0.26458333)"
         inkscape:export-xdpi="97.446281"
         inkscape:export-ydpi="97.446281" />
      <path
         style="fill:#f29f05;fill-opacity:1;stroke:none;stroke-width:0.0624102"
         d="m 5.4610953,10.017159 c 0,-0.046478 -0.18255,-0.2679548 -0.4056666,-0.492171 L 4.6497622,9.1173218 V 8.4814159 7.8455105 L 4.3853408,7.5069475 C 4.239909,7.3207372 4.1065072,7.1685985 4.0888922,7.1688606 4.0712772,7.1691227 3.8743151,7.2250773 3.6511985,7.2932043 3.1491492,7.4465007 3.0003019,7.4530487 3.0515171,7.3195838 3.2416578,6.8240853 5.3649391,4.5206707 6.3752252,3.7139019 L 6.8212784,3.357704 7.5586152,3.4297011 8.295952,3.5016982 8.3919718,3.3551356 C 8.74214,2.820646 8.8600169,2.7197333 9.2993246,2.5783638 10.012068,2.3490026 10.224828,2.3018075 10.946464,2.2129905 c 0.600412,-0.073897 0.720634,-0.10918 0.952147,-0.2794366 0.289035,-0.2125583 0.373931,-0.2288363 0.664745,-0.1274577 0.137833,0.048048 0.213579,0.1286913 0.263794,0.280846 0.03874,0.1173939 0.09416,0.2134434 0.12315,0.2134434 0.08973,0 0.497471,-0.5097255 0.761338,-0.9517561 0.249422,-0.41782993 0.253709,-0.42126905 0.525208,-0.42126905 0.272648,0 0.430459,-0.0946934 0.568303,-0.34100673 0.04975,-0.0889027 0.177284,-0.10714645 0.812711,-0.11626008 0.414534,-0.005945 0.769259,0.004543 0.788279,0.0233073 0.01902,0.0187645 -0.0065,0.17067218 -0.05675,0.33757264 -0.129004,0.42864812 -0.118734,0.70142912 0.02939,0.78070362 0.229114,0.1226178 0.379806,0.076877 0.471759,-0.1431954 0.156164,-0.3737551 0.223051,-0.3898995 0.732283,-0.1767501 0.249662,0.1045015 0.664567,0.2969667 0.922009,0.4277002 0.456781,0.2319608 0.483389,0.2374835 1.102561,0.2288313 0.566317,-0.00791 0.6687,-0.027489 0.952954,-0.1821986 l 0.318469,-0.1733325 0.669713,0.3215762 c 0.887481,0.4261423 1.147934,0.5108978 1.569983,0.5108978 0.338937,0 0.385191,0.021015 1.080794,0.4910427 1.155506,0.7807909 2.36849,1.7557257 2.184419,1.7557257 -0.111264,0 -1.030325,-0.4090863 -1.683242,-0.749233 C 24.085334,3.6022698 24.083157,3.6016914 23.227676,3.5314736 L 22.370928,3.461152 22.20402,3.6280601 c -0.115298,0.1152984 -0.1775,0.2563563 -0.201163,0.4561873 L 21.968602,4.3735266 21.565989,4.524612 C 21.344551,4.607709 21.13286,4.6639877 21.095563,4.6496758 21.058268,4.6353638 20.948844,4.3969783 20.852401,4.1199302 20.600645,3.3967243 20.428834,3.2952272 20.355991,3.8266763 c -0.02331,0.1700798 -0.128525,0.4169558 -0.265825,0.6237457 -0.231851,0.3491915 -0.246357,0.5315702 -0.04264,0.5360465 0.214928,0.00472 0.197019,0.011209 -5.911411,2.1412369 -5.3509386,1.8658875 -8.5617284,2.9739596 -8.6174537,2.9739596 -0.031663,0 -0.057569,-0.03803 -0.057569,-0.08451 z"
         id="path1659"
         transform="scale(0.26458333)"
         inkscape:export-xdpi="97.446281"
         inkscape:export-ydpi="97.446281" />
      <path
         style="fill:#f29f05;fill-opacity:1;stroke:none;stroke-width:0.0624102"
         d="m 0.84273798,11.759668 c 0,-0.143391 0.56634592,-1.684171 0.83697052,-2.2770322 0.4404202,-0.9648354 1.0709565,-2.0416204 1.1736751,-2.0043197 0.1378619,0.050062 0.6063143,0.011035 0.720199,-0.060001 0.082691,-0.051579 0.030146,-0.058357 -0.2188327,-0.028228 -0.2125823,0.025725 -0.3276537,0.016613 -0.3276537,-0.025945 0,-0.302958 2.3330711,-2.8476359 3.3513615,-3.6553258 L 6.8277434,3.3524523 7.5632935,3.424898 8.298843,3.4973438 8.3934176,3.3529583 C 8.775734,2.7692796 8.8409633,2.7191075 9.4876544,2.5113115 9.8624703,2.3908749 10.417762,2.2738144 10.881556,2.2174645 c 0.697764,-0.084777 0.79363,-0.1119298 1.010507,-0.2862167 0.131784,-0.1059048 0.293233,-0.1925543 0.358775,-0.1925543 0.271116,0 0.49315,0.1332269 0.602215,0.3613484 l 0.110705,0.2315488 0.248583,-0.2796473 c 0.136721,-0.153806 0.359613,-0.4697578 0.495317,-0.7021151 0.246206,-0.42156113 0.247331,-0.42246785 0.524828,-0.42246785 0.276826,0 0.434096,-0.093402 0.571904,-0.33965156 0.04874,-0.0870914 0.181439,-0.10608209 0.812383,-0.11626007 0.414771,-0.006691 0.768565,0.001915 0.786209,0.019124 0.01764,0.017209 -0.0077,0.18481595 -0.05642,0.37245981 -0.113678,0.43823877 -0.111592,0.59401047 0.0096,0.71517737 0.170581,0.1705808 0.388971,0.1233422 0.484319,-0.10476 0.04663,-0.1115583 0.130946,-0.2411151 0.187364,-0.287904 0.121376,-0.100659 0.229439,-0.063462 1.373332,0.4727241 l 0.738858,0.3463309 0.540552,-0.04205 c 0.396467,-0.030842 0.627599,-0.08549 0.867122,-0.2050209 l 0.326569,-0.1629709 0.7032,0.3312509 c 0.86124,0.4056984 1.158197,0.4993961 1.582741,0.4993961 0.303282,0 0.377481,0.032819 0.941837,0.4165756 1.125965,0.7656463 2.370515,1.7469718 2.302203,1.8152835 -0.04999,0.049995 -0.691663,-0.2224265 -1.533558,-0.6510743 L 24.09055,3.6087914 23.230147,3.5355639 22.369744,3.4623363 22.203428,3.6286523 c -0.115396,0.1153961 -0.176804,0.2557195 -0.200571,0.4583288 l -0.03425,0.2920129 -0.399995,0.1493567 c -0.219996,0.082146 -0.433674,0.1364325 -0.474839,0.1206362 -0.04116,-0.015796 -0.154186,-0.2566426 -0.25116,-0.535214 -0.249447,-0.7165762 -0.413885,-0.8177326 -0.485068,-0.2983971 -0.02037,0.1486064 -0.136629,0.4355882 -0.258357,0.6377373 -0.121728,0.2021492 -0.221324,0.3911646 -0.221324,0.4200343 0,0.02887 0.06146,0.075226 0.136582,0.1030152 0.121974,0.045121 0.106957,0.060815 -0.140423,0.1467425 -0.152353,0.05292 -1.723362,0.6026871 -3.491132,1.2217052 C 12.608219,7.6663819 9.9494957,8.5919768 7.373426,9.4811205 5.6408888,10.079115 5.505458,10.11631 5.4461984,10.010419 5.3883554,9.9070591 5.375411,9.9132277 5.306256,10.077107 c -0.071327,0.169027 -0.213175,0.228509 -2.2166318,0.929506 -1.1772354,0.411908 -2.16438108,0.758285 -2.19365709,0.769726 -0.029276,0.01144 -0.0532291,0.0039 -0.0532291,-0.01667 z M 4.8483296,9.3332332 C 4.6513709,9.1300236 4.6497622,9.1231716 4.6497622,8.4874659 c 0,-0.5952145 -0.01165,-0.6561712 -0.163433,-0.8551694 C 4.3964411,7.5144473 4.295785,7.4180247 4.2626491,7.4180247 c -0.033136,0 0.029482,0.1132921 0.1391509,0.2517604 0.1915096,0.241801 0.1982233,0.2695773 0.1697034,0.7021152 -0.041676,0.6320602 0.039084,0.9886024 0.2518832,1.1120286 0.2440182,0.1415339 0.2533775,0.084989 0.024943,-0.1506957 z M 4.2128906,7.2968877 c 0,-0.0323 -0.026793,-0.075286 -0.05954,-0.095525 -0.086024,-0.053166 -0.3829035,0.032335 -0.3420118,0.098499 0.046,0.07443 0.4015519,0.071797 0.4015519,-0.00297 z"
         id="path1661"
         transform="scale(0.26458333)"
         inkscape:export-xdpi="97.446281"
         inkscape:export-ydpi="97.446281" />
      <path
         style="fill:#f29f05;fill-opacity:1;stroke:none;stroke-width:0.0624102"
         d="M 0.93460446,11.552703 C 1.1262759,10.787457 2.0572447,8.69364 2.5540588,7.9104309 L 2.7761586,7.5602989 3.1584867,7.5256306 C 3.3687671,7.506563 3.5726722,7.4576496 3.6116092,7.4169338 3.6660267,7.36003 3.606607,7.352949 3.3547499,7.3863216 3.1397784,7.4148062 3.0270962,7.4071791 3.0270962,7.3641435 c 0,-0.036077 0.2107408,-0.3453552 0.4683129,-0.6872852 C 4.0789726,5.9021715 5.3551699,4.5701566 6.1788129,3.8760893 L 6.8029153,3.350171 7.2085818,3.3879744 c 0.2231166,0.020792 0.5622532,0.054467 0.7536366,0.074834 l 0.3479708,0.03703 0.1988321,-0.3098531 C 8.618379,3.0195665 8.7566808,2.8367189 8.8163587,2.7836574 9.0006087,2.6198343 10.136652,2.3059684 10.885554,2.2119804 11.501612,2.1346643 11.634893,2.096586 11.87034,1.930628 12.294051,1.6319687 12.659995,1.6962764 12.854766,2.1036222 l 0.109002,0.2279685 0.216654,-0.2496409 c 0.119159,-0.1373025 0.343718,-0.4532544 0.499019,-0.7021152 0.280986,-0.45026394 0.283706,-0.45247415 0.556752,-0.45247415 0.272889,0 0.431017,-0.0945246 0.568197,-0.33965156 0.04874,-0.0870914 0.181439,-0.10608209 0.812383,-0.11626007 0.414771,-0.006691 0.768009,0.001877 0.784974,0.01904 0.01696,0.0171628 -0.0119,0.20503139 -0.06413,0.41748572 -0.117179,0.47657156 -0.07395,0.68926236 0.151611,0.74587336 0.13026,0.032693 0.188215,0.011542 0.264293,-0.096459 0.0536,-0.076084 0.156551,-0.211938 0.228791,-0.3018979 0.154025,-0.1918053 0.07934,-0.2124277 1.361326,0.3759044 l 0.806158,0.3699647 0.535662,-0.041751 c 0.387236,-0.030182 0.625448,-0.086187 0.859698,-0.202119 l 0.324037,-0.1603683 0.85307,0.3881724 c 0.732522,0.3333193 0.920106,0.3932423 1.327448,0.4240495 0.457284,0.034584 0.495786,0.050392 1.068559,0.4387329 0.799041,0.5417497 1.707674,1.2314699 2.057427,1.5617399 0.28218,0.2664617 0.283657,0.2699127 0.09922,0.2317346 -0.102986,-0.021315 -0.643178,-0.261167 -1.200435,-0.5330046 L 24.061287,3.6142963 23.214504,3.5393283 22.36772,3.4643602 22.202416,3.6296642 C 22.088043,3.7440378 22.026558,3.8849379 22.002857,4.0869811 L 21.968607,4.378994 21.568612,4.5283507 C 21.348616,4.6104967 21.133882,4.664378 21.091427,4.6480865 21.048967,4.6317955 20.965337,4.4690186 20.905572,4.2863612 20.74922,3.8085175 20.569197,3.4741715 20.48362,3.5026971 c -0.04073,0.013576 -0.09583,0.1545561 -0.122437,0.3132884 -0.02661,0.1587323 -0.14873,0.4570539 -0.271374,0.6629368 -0.223748,0.3756069 -0.232986,0.5034702 -0.03663,0.5070012 0.09003,0.00162 0.09178,0.00982 0.01192,0.055808 -0.127996,0.073709 -12.9449641,4.5489241 -14.2179977,4.9644035 -0.3166591,0.103347 -0.3354136,0.103212 -0.4130537,-0.003 -0.076623,-0.1047889 -0.085732,-0.1030108 -0.1572962,0.03071 -0.04178,0.07807 -0.2027898,0.19804 -0.3578001,0.266609 -0.2644779,0.116989 -3.93377574,1.423843 -3.99777782,1.423843 -0.0162513,0 -0.0102033,-0.07723 0.01344,-0.171628 z M 5.0242236,9.5553724 c 0,-0.025855 -0.084254,-0.1265324 -0.1872307,-0.2237257 C 4.6519673,9.1570123 4.6497424,9.1470915 4.6480833,8.4893108 4.6464657,7.8479688 4.6398118,7.8157383 4.4656544,7.6056542 4.2353984,7.3278994 4.1669887,7.3839094 4.3705693,7.6835048 4.5040575,7.8799503 4.5249888,7.9807884 4.5252898,8.4288802 4.525708,9.0491455 4.606708,9.3779183 4.7908949,9.5069277 4.9396576,9.6111253 5.0242236,9.6286832 5.0242236,9.5553724 Z M 4.2128906,7.2998815 c 0,-0.082368 -0.1566771,-0.1278018 -0.3060316,-0.088745 -0.2070463,0.054144 -0.1522775,0.1444778 0.087596,0.1444778 0.1201397,0 0.2184358,-0.02508 0.2184356,-0.055733 z"
         id="path1663"
         transform="scale(0.26458333)"
         inkscape:export-xdpi="97.446281"
         inkscape:export-ydpi="97.446281" />
      <g
         transform="matrix(6.4857201e-4,0,0,-6.4857201e-4,0.06344219,8.3753086)"
         fill="#000000"
         stroke="none"
         id="g10"
         style="fill:#ffffff;fill-opacity:1"
         inkscape:export-xdpi="97.446281"
         inkscape:export-ydpi="97.446281">
        <path
           d="M 6085,12793 C 5305,12748 4664,12608 4000,12340 2828,11866 1827,11058 1108,10005 563,9207 202,8277 65,7316 17,6978 6,6797 6,6395 6,5999 17,5828 66,5490 328,3644 1384,2003 2958,997 3836,436 4801,112 5880,18 c 218,-19 821,-16 1045,5 438,42 832,116 1215,227 1708,494 3133,1684 3930,3280 224,450 349,786 495,1340 145,548 189,888 189,1460 1,415 -22,698 -90,1105 -226,1363 -858,2582 -1836,3540 -774,760 -1678,1286 -2723,1585 -548,157 -744,190 -1390,230 -137,9 -508,11 -630,3 z m 522,-43 h 63 l -51,-96 c -51,-95 -52,-96 -62,-225 -6,-76 -6,-134 -1,-139 10,-10 176,-61 181,-56 2,2 11,42 20,89 16,81 20,90 64,133 l 47,46 319,-142 c 175,-79 365,-166 423,-195 l 105,-52 263,21 262,22 73,72 c 40,40 75,72 79,72 3,0 174,-81 380,-180 l 373,-180 h 168 169 l 96,-57 c 296,-173 640,-420 922,-662 113,-97 322,-293 317,-297 -2,-2 -79,25 -173,60 -408,152 -682,286 -817,398 l -48,40 -371,29 -372,30 -83,-83 c -46,-45 -83,-89 -83,-98 1,-8 18,-55 39,-105 l 38,-90 71,-3 c 40,-2 72,-6 73,-10 0,-4 6,-63 13,-132 7,-69 12,-126 12,-127 -1,-1 -55,30 -120,69 -93,55 -120,68 -127,57 -5,-8 -41,-72 -81,-142 -63,-112 -75,-127 -93,-122 -11,4 -47,9 -80,12 -33,2 -69,8 -80,13 -11,5 -31,10 -45,12 -18,2 -30,14 -43,41 -20,41 -27,42 -108,27 -36,-7 -63,-20 -84,-40 l -30,-29 -45,34 c -43,33 -49,35 -128,35 -89,0 -84,3 -106,-67 -6,-19 -2,-22 44,-28 l 50,-7 -45,-56 c -41,-53 -43,-58 -30,-79 21,-31 20,-33 -23,-33 -49,0 -171,31 -256,65 -74,30 -154,34 -206,12 -42,-17 -103,-76 -234,-225 l -99,-114 79,-79 79,-79 h 57 c 32,0 92,-10 133,-22 64,-19 76,-26 84,-50 11,-32 24,-33 204,-21 l 98,6 117,93 c 123,99 123,99 283,126 65,11 66,11 173,-32 98,-39 112,-42 164,-36 154,18 175,19 168,8 -10,-16 21,-82 80,-172 27,-41 72,-130 100,-196 29,-67 75,-155 102,-197 45,-66 52,-83 59,-148 8,-71 9,-74 33,-72 14,2 80,-2 148,-8 68,-6 125,-9 128,-6 3,2 -12,31 -32,63 -27,44 -55,71 -110,108 -61,42 -75,57 -90,95 -9,25 -48,126 -86,224 -39,98 -68,180 -66,181 1,2 23,11 48,20 52,20 51,21 100,-74 16,-30 51,-89 79,-129 49,-74 52,-76 168,-135 l 118,-61 5,-86 c 8,-130 24,-150 170,-204 l 115,-42 85,45 c 121,64 122,65 149,115 l 25,45 -42,56 -43,56 h 109 110 l 85,-93 c 83,-90 88,-94 231,-165 118,-58 146,-76 142,-90 -2,-9 -7,-44 -11,-76 l -7,-59 88,-88 88,-89 -34,-35 c -19,-19 -37,-35 -42,-35 -23,0 -402,177 -515,241 l -132,74 -223,-12 c -123,-7 -242,-15 -264,-18 l -41,-6 4,-92 c 2,-51 6,-102 8,-113 3,-15 56,-55 168,-128 132,-86 197,-120 340,-180 154,-64 447,-221 463,-247 3,-5 0,-55 -6,-111 -11,-94 -17,-112 -64,-200 -28,-54 -54,-98 -59,-98 -4,0 -43,24 -87,53 -55,37 -134,110 -262,243 l -183,189 -51,1 c -49,0 -55,3 -207,123 l -157,122 -72,-3 -72,-3 -21,-85 -21,-85 -35,3 c -64,6 -69,10 -70,55 0,23 -3,50 -7,59 -4,9 -135,112 -292,228 -157,116 -284,214 -283,216 0,3 30,38 66,78 63,70 68,74 146,96 45,12 81,26 81,30 0,3 -21,38 -48,76 l -47,69 -54,3 c -49,3 -65,11 -172,85 l -119,81 -115,-28 -115,-28 -72,58 c -39,33 -106,88 -147,122 l -76,64 -97,-6 c -147,-8 -290,14 -423,64 l -110,42 -135,-12 -135,-12 -145,-102 -145,-102 -135,-23 c -123,-20 -141,-26 -205,-66 -38,-24 -104,-53 -145,-65 -70,-20 -77,-25 -115,-76 l -40,-55 -126,6 -125,6 -135,-121 c -86,-78 -136,-131 -141,-148 -4,-15 -23,-99 -44,-188 l -37,-160 -132,-140 c -128,-135 -132,-141 -148,-206 -10,-39 -17,-107 -17,-162 0,-91 2,-101 50,-221 64,-161 146,-325 328,-658 l 147,-267 57,-35 c 54,-32 67,-35 166,-41 l 107,-7 138,-109 c 97,-75 147,-108 165,-108 15,0 117,-7 227,-15 110,-8 205,-15 210,-15 6,0 26,-25 45,-56 l 34,-56 52,7 52,6 92,-107 93,-106 41,5 c 23,3 59,9 82,12 l 40,7 26,-179 25,-178 -63,-89 c -35,-49 -97,-118 -137,-153 l -74,-64 29,-167 c 15,-93 39,-302 52,-470 25,-302 25,-302 5,-372 -38,-137 -38,-137 -169,-224 l -119,-79 -143,-426 -142,-426 44,-217 44,-217 -28,-187 -28,-188 -88,-115 -88,-116 -7,-114 c -5,-77 -15,-137 -30,-182 l -23,-67 88,-26 88,-26 100,45 99,45 h 124 124 l 208,-67 209,-67 131,66 c 73,37 230,125 349,196 l 217,129 107,11 c 59,7 111,17 115,23 3,6 12,84 20,172 l 13,161 57,66 58,67 98,12 c 157,20 163,22 262,105 l 92,76 h 78 78 l 279,250 c 314,282 288,245 319,450 9,58 26,153 39,212 23,106 24,108 131,266 l 107,159 67,7 c 36,3 83,6 105,6 24,0 81,19 155,51 98,44 150,77 341,217 l 226,165 74,126 c 133,227 180,309 180,318 0,5 -34,21 -75,36 l -75,26 -38,-40 -37,-40 -93,75 c -117,95 -111,91 -120,65 -6,-14 -12,21 -20,111 -8,88 -9,138 -2,150 23,44 12,74 -53,142 -73,75 -113,151 -182,338 -43,116 -47,137 -61,291 -12,138 -12,177 -1,230 8,43 11,99 6,169 -6,109 -2,444 7,516 l 5,41 75,-17 c 41,-10 78,-21 81,-24 4,-4 -4,-109 -18,-234 l -25,-227 48,-104 48,-103 v -177 c 0,-268 18,-395 80,-579 l 52,-152 121,-153 c 66,-83 121,-154 123,-155 1,-2 27,15 57,37 53,41 54,41 143,41 l 89,1 285,315 285,315 17,82 c 9,45 17,89 18,98 0,18 -61,105 -203,289 -104,134 -110,137 -193,77 -30,-21 -58,-36 -62,-33 -3,4 -11,47 -18,97 -10,75 -20,103 -56,167 -36,63 -48,76 -65,74 -15,-2 -28,6 -39,23 -14,21 -15,40 -10,113 4,48 13,114 19,146 12,59 12,60 75,94 35,19 64,33 66,31 10,-14 110,-299 128,-368 l 23,-84 135,-116 c 74,-64 207,-185 295,-270 l 159,-154 44,-141 c 25,-77 59,-211 76,-296 l 32,-155 69,-27 70,-26 -3,-199 c -2,-109 -15,-373 -28,-587 -14,-214 -24,-390 -22,-391 2,-1 22,-12 46,-24 23,-12 42,-26 42,-31 0,-31 -108,-393 -166,-556 C 12101,3597 11756,2978 11303,2412 10364,1240 9034,438 7565,156 7166,80 6815,48 6375,48 5915,48 5558,82 5144,165 l -162,32 -95,99 c -52,55 -105,112 -118,127 -25,29 -40,34 -1434,469 l -260,81 -170,112 C 2178,1563 1567,2175 1087,2906 l -106,161 -52,368 c -51,367 -52,368 -89,434 -21,36 -50,109 -66,160 l -28,94 17,136 c 12,99 21,139 33,146 8,6 43,28 77,50 l 61,40 -2,55 c -1,30 -5,105 -8,165 l -5,110 105,77 106,78 v 107 108 l 241,315 c 132,173 244,319 249,324 6,6 46,-2 102,-19 l 93,-27 39,44 c 25,27 141,231 301,528 l 261,484 144,29 144,29 41,46 c 80,91 77,84 65,157 -9,53 -28,100 -98,230 l -87,162 -120,75 -120,75 -3,185 -2,184 -178,95 -177,94 2,244 3,244 40,74 41,74 -40,66 c -38,63 -46,70 -148,127 l -108,61 -24,105 -24,105 17,182 c 10,100 14,188 9,196 -12,20 -224,297 -227,297 -2,0 -72,-27 -155,-60 -148,-58 -155,-60 -247,-60 -52,0 -94,2 -94,5 0,11 141,215 242,350 332,445 743,865 1177,1203 185,144 174,139 301,141 85,2 151,-5 290,-30 l 181,-32 37,36 c 22,21 47,62 60,97 18,46 43,81 101,142 l 77,81 83,5 c 72,4 91,9 139,38 66,40 192,90 259,103 27,6 181,20 343,32 l 295,21 31,30 c 17,16 53,56 80,89 48,58 50,59 99,59 69,-1 194,-18 227,-31 15,-6 29,-22 33,-37 3,-14 16,-39 27,-55 16,-22 19,-39 16,-77 -5,-44 -3,-48 12,-40 10,5 62,56 115,112 87,93 105,119 184,268 l 88,165 69,7 c 38,4 103,10 145,13 l 76,6 46,82 47,82 -43,6 -42,6 50,3 c 208,12 399,17 505,14 69,-2 153,-4 187,-4 z M 223,7247 c 37,-149 87,-376 111,-503 l 44,-231 -8,-219 -8,-219 94,-171 c 52,-93 94,-175 94,-182 0,-6 -21,-85 -46,-174 l -46,-163 -11,-300 -10,-301 61,-174 c 64,-181 87,-284 156,-696 l 32,-192 60,-98 c 45,-74 74,-140 120,-276 34,-99 58,-176 53,-171 -14,15 -137,240 -207,380 -346,692 -555,1420 -637,2218 -43,416 -37,982 15,1400 23,178 51,345 59,345 3,0 37,-123 74,-273 z"
           id="path4"
           style="fill:#ffffff;fill-opacity:1" />
        <path
           d="m 8225,11360 10,-130 -85,-97 c -59,-67 -95,-118 -113,-162 -15,-35 -26,-65 -24,-67 4,-5 461,17 466,22 7,6 -39,152 -79,254 -21,52 -43,131 -50,175 -7,44 -16,86 -20,94 -7,13 -78,40 -105,41 -7,0 -7,-42 0,-130 z"
           id="path6"
           style="fill:#ffffff;fill-opacity:1" />
        <path
           d="m 9968,3259 -137,-110 -163,-11 -163,-11 -87,-66 c -85,-64 -88,-68 -118,-146 -30,-77 -36,-84 -136,-173 -106,-95 -138,-112 -206,-112 -42,0 -45,-5 -22,-38 15,-21 13,-25 -45,-90 l -61,-67 v -82 c 0,-83 0,-83 26,-83 33,0 335,30 350,35 6,2 139,146 295,320 156,175 302,338 324,362 37,41 46,45 110,55 69,11 71,11 153,92 45,44 82,85 82,91 0,17 -51,145 -58,145 -4,-1 -69,-50 -144,-111 z"
           id="path8"
           style="fill:#ffffff;fill-opacity:1" />
      </g>
    </g>
  </g>
</svg>
